<svg xmlns="http://www.w3.org/2000/svg" fill="none" viewBox="0 0 420 334">
  <g clip-path="url(#v3KiMF0rGa)">
    <path d="M251.36 112.06c2.39-2.17 3.82-5.14 3.69-8.36-.09-2.21-.91-4.24-2.24-5.94.65-1.31 1-2.77.94-4.29-.16-3.89-2.87-7.15-6.65-8.55v-.2c-.12-2.95-2.22-5.45-5.24-6.77 0-.16.01-.32 0-.48-.26-6.56-6.57-11.65-14.05-11.35-1.31.05-2.56.27-3.74.63-1.27-2.88-4.36-4.86-7.88-4.72-1.69.07-3.24.61-4.51 1.49-1.86-1.01-4-1.56-6.27-1.47-5.71.23-10.35 4.4-11.47 9.79-4.8.3-8.5 4.67-8.3 9.85.03.79.16 1.56.37 2.29a8.67 8.67 0 00-1.63 5.43c.01.32.05.63.09.94-3.82 1.89-5.28 5.71-5.11 9.76.1 2.43-2.59 4.76-.91 6.48.21 1.02.64 1.78 1.25 2.62-.48.77 3.71 2.48 3.75 3.38.1 2.36-3.08 4.85-.25 5.5-.58 1.19.82 2.12.88 3.5.19 4.79 7.32 4.45 12.52 4.24" fill="#ED5543"/>
    <path d="M245.469 202.221c-9-.25-26.25-6-27.5-19.75s-1.5-35.64-1.5-39.92c0-12.83 11.4-23.61 26.67-25.5 16.17-2 27.17 3.67 27.17 3.67l-13-14.5-16.67-7.17-20.58.67-9.92 3.83s-4.51 3.74-9.67 10c-4.67 5.67-11 31.42-7.5 46.17.49 2.05 7.31-2.13 8.17.17.86 2.29 4.67 12 4.5 15.5-.66 13.89 8.74 23.25 19.06 26.01 14.28 3.82 20.78.82 20.78.82h-.01z" fill="#ED5543"/>
    <path d="M256.471 251.221s47 .5 63.5-13.5c0 0-2.5 13.25-41.5 18.5l-13.94 1.17-8.06-6.17zm-118.831-28.17c-1.08 2.62 18.83 1.83 21.67 3.33 2.83 1.5 8.83-23.33 13-25.5 4.17-2.17-4.33-7.5-4.33-7.5s3.5-.67 6.83 1.17c3.33 1.83 22.5-6.33 22.5-6.33s-7.5-10.83-14.5-9.33-35.83 21.5-45.17 44.17v-.01zm109.7 41.789c1 .25 12.88-.5 14.38 4.12s-2 5-2 5l-9.62-4.62-2.75-4.5h-.01zm-27.539 12.549c.67.17 24.5 3 26.67-1.5 2.17-4.5 8.33-.5 8.5 0 .17.5-.33 6.33-2.83 6.5-2.5.17-12.33 9.83-20.5 8.17-8.17-1.67-12.5-4-12.5-4l.67-9.17h-.01z" fill="#ED5544"/>
    <path d="M159.471 230.221c2.55 7.64-23.33 41-1 45s62 2 62 2l-1.33 10.33s-81 15.33-86.67-8.67c-5.67-24 7.33-53 7.33-53s18.33.33 19.67 4.33v.01z" fill="#ED5544"/>
    <path d="M225.471 160.721l19.37 17.12-5.25 2.75-17.62-16 3.5-3.87z" fill="#ED5543"/>
    <path d="M220.59 167.221l15.25 14.5" stroke="#ED5544" stroke-width="2.11" stroke-linecap="round" stroke-linejoin="round"/>
    <path d="M179.439 30.54l-.86-5.56-5.66-2.85-33.63 17.42-127.03 67.861-3.9 4.8-.9 26.73s-.3 6.31 6.31 1.8c6.61-4.5 164.56-86.79 165.16-90.39.6-3.6.51-19.82.51-19.82v.01z" fill="#ED5543"/>
    <path d="M25.14 259.501l-17.58 9.6.74-153.53a10.24 10.24 0 015.47-9.1l156.411-83.5c4.19-2.21 9.22.82 9.24 5.55l-.89 22.44" stroke="#3D4749" stroke-width="2.5" stroke-linecap="round" stroke-linejoin="round"/>
    <path d="M8.66 268.969l-7.41-6.18.74-153.52a10.24 10.24 0 015.47-9.1l148.11-79.4c10.16-4.87 12.64-7.37 21.41 2.82" stroke="#3D4749" stroke-width="2.5" stroke-linecap="round" stroke-linejoin="round"/>
    <path d="M178.961 57.22l-.43-6.26-169.81 92.361" stroke="#3D4749" stroke-width="2.5" stroke-linecap="round" stroke-linejoin="round"/>
    <path d="M9.03 143c1.82 51.41 21.02 80.81 55.16 119.3l60.279-40.57" stroke="#3D4749" stroke-width="2.5" stroke-linecap="round" stroke-linejoin="round"/>
    <path d="M54.43 251.84C52.34 252.54 37.7 263 37.7 263S16.8 241.73 9.13 154.58m211.58 131.96c-87.55 18.09-88.63-10.85-88.63-10.85-3.43-14.54 1.69-34.69 7.77-48.71m53.97-51.63c-15.31 3.28-45.54 22.89-56.73 48.99m84.73 61.939c3.03 2.89 7.41 3.95 11.6 4.05 3.91.09 7.9-.57 11.37-2.39 3.47-1.82 6.37-4.86 7.58-8.58m-7.409-21.718c3.43-1.48 6.41-1.67 9.01 1.01 2.6 2.68 7.51 6.67 8.84 10.16.24.61.47 1.24.47 1.9 0 1.7-1.55 2.95-2.94 3.93" stroke="#3D4749" stroke-width="2.5" stroke-linecap="round" stroke-linejoin="round"/>
    <path d="M250.9 269.23c1.57 1.26 3.53 1.92 5.35 2.79 1.82.87 3.63 2.1 4.37 3.98.93 2.36-.17 5.16-2.1 6.8-1.94 1.63-4.53 2.27-7.06 2.44m12.251-13.069c2.29.99 4.48 2.2 6.54 3.61-.76-2.29-1.89-4.45-3.33-6.39M245.3 247.88l-13.61-12.71s-1.96-.63-3.67 1.27c-1.89 2.1-1.39 4.28-1.39 4.28l10.37 9.89m-32.831-90.8c-3.5-1.25-7.51-.72-10.23 3.36-4.34 6.51 1.81 18.81 10.13 18.09" stroke="#3D4749" stroke-width="2.5" stroke-linecap="round" stroke-linejoin="round"/>
    <path d="M193.95 162.33c-3.68-17.26-1.47-35.19 7.19-49.44 12.48-20.53 70.33-24.67 74.52 29.85.71 9.2 3.96 37.81-12.13 51.91-11.77 10.32-25.4 9.41-38.83 6.75-8.54-1.69-14.39-9.73-16.64-13.75-2.61-4.67-2.26-13.27-2.26-13.27m61.5 92.13c-.05-2.45-.58-4.89-1.54-7.15-.31-.72-.67-1.44-1.23-1.97-.71-.68-1.67-1.01-2.56-1.4-3.15-1.38-5.81-3.66-8.72-5.49-2.91-1.83-6.35-3.26-9.73-2.63-3.9.72-6.77 3.94-9.48 6.83-3.82 4.08-8.06 8.11-13.38 9.82-2.4.77-16.23-1.32-21.87-2.8-10.54-2.78-21.1-5.46-31.7-7.98" stroke="#3D4749" stroke-width="2.5" stroke-linecap="round" stroke-linejoin="round"/>
    <path d="M173.08 194.16c8.2 3.86 12.84 11.36 14.88 18.08 2.05 6.73.78 14-1.05 20.79-1.66 6.16-3.79 12.27-4.23 18.63-.19 2.69.74 6.27 3.44 6.32" stroke="#3D4749" stroke-width="2" stroke-linecap="round" stroke-linejoin="round"/>
    <path d="M305.279 200.551c9.07 8.04 16.49 17.53 17.57 27.62 2.41 22.43-36.18 28.46-55.23 28.7m5.551-77.662c5.63-.16 24.3 7.68 35.3 18.51m-11.65 14.082c-8.65.67-18.56 4.81-26.79 15.17-14.95 18.81-17.61 19.78-17.61 19.78" stroke="#3D4749" stroke-width="2.5" stroke-linecap="round" stroke-linejoin="round"/>
    <path d="M297.771 253.01c.72 0 80.07 24.36 80.07 24.36l-59.57 54.75-119.63-41" stroke="#3D4749" stroke-width="2.5" stroke-linecap="round" stroke-linejoin="round"/>
    <path d="M237.852 166.483c2.099-.407 3.37-2.956 2.84-5.694-.531-2.738-2.661-4.628-4.76-4.222-2.098.406-3.369 2.955-2.839 5.694.53 2.738 2.661 4.628 4.759 4.222zm25.658-3.103c2.021 0 3.66-2.23 3.66-4.98 0-2.75-1.639-4.98-3.66-4.98-2.022 0-3.66 2.23-3.66 4.98 0 2.75 1.638 4.98 3.66 4.98z" fill="#3D4749"/>
    <path d="M257.12 184.18c-3.22 4.54-15.02 8.84-23.78 1.64m.979-45.669c-1.08-.7-2.45-.78-3.73-.62-4.7.61-8.72 4.66-9.3 9.36m34.592-10.181a9.075 9.075 0 017.18-.54c2.33.81 4.29 2.63 5.28 4.89M45.5 87.31c-1.59-3.24-2.54-7.3-2.54-11.71 0-10.58 5.45-19.16 12.18-19.16 6.73 0 12.18 8.58 12.18 19.16 0 9.01-3.95 16.56-9.27 18.61" stroke="#3D4749" stroke-width="2" stroke-linecap="round" stroke-linejoin="round"/>
    <path d="M58.78 97.13c1.303 0 2.36-1.236 2.36-2.76 0-1.525-1.057-2.76-2.36-2.76s-2.36 1.235-2.36 2.76c0 1.524 1.056 2.76 2.36 2.76zm74.41-49.28c-1.59-3.24-2.54-7.3-2.54-11.71 0-10.58 5.45-19.16 12.18-19.16 6.73 0 12.18 8.58 12.18 19.16 0 9.01-3.95 16.56-9.27 18.61" stroke="#3D4749" stroke-width="2" stroke-linecap="round" stroke-linejoin="round"/>
    <path d="M146.469 57.66c1.304 0 2.36-1.235 2.36-2.76 0-1.524-1.056-2.76-2.36-2.76-1.303 0-2.36 1.236-2.36 2.76 0 1.525 1.057 2.76 2.36 2.76z" stroke="#3D4749" stroke-width="2" stroke-linecap="round" stroke-linejoin="round"/>
    <path d="M349.74 280.17c-2.45 1.64-35.97 34.75-35.97 34.75m24.93-38.84l-37.19 32.7m23.299-37.6l-38.02 30.65m22.072-35.15l-35.15 29.43m16.759-35.559c-1.64 1.23-18.8 13.9-18.8 13.9" stroke="#3D4749" stroke-width="2.5" stroke-linecap="round" stroke-linejoin="round"/>
    <path d="M159.799 81.8l-137.76 72.631c1.64 21.8 20.3 57.23 47.83 85.03l52.6-33.93" stroke="#ED5544" stroke-width="2" stroke-linecap="round" stroke-linejoin="round"/>
    <path d="M56.379 135.631c.67 8.97 4.23 20.25 10.1 32.35 7.96 16.42 20.18 34.36 35.24 50.12m-11.821-98.83c1.46 19.41 16.41 49.62 39.1 75.63m-5.578-92.79c1.37 18.25 14.67 46.04 35.11 70.91m-125.86 14.11l128.22-71.16m-111.251 98.96l111.52-64.54" stroke="#ED5544" stroke-width="2" stroke-linecap="round" stroke-linejoin="round"/>
    <path d="M408.85 139.919l4.5 7.8-3.71.94-5.29-9.05 4.5.31zm-6.69.001l3.84 8.46s-8.05-.73-8.68-3.51c-.63-2.78 1.77-4.7 4.84-4.95z" fill="#ED5544"/>
    <path d="M397.471 147.221v4m9.949-2.75c6.219 0 11.26-2.051 11.26-4.58 0-2.53-5.041-4.58-11.26-4.58-6.219 0-11.26 2.05-11.26 4.58 0 2.529 5.041 4.58 11.26 4.58z" stroke="#3D4749" stroke-width="2" stroke-linecap="round" stroke-linejoin="round"/>
    <path d="M418.68 143.891v4.96c0 2.53-5.04 4.58-11.26 4.58s-11.26-2.05-11.26-4.58v-4.96m5.311 4.33v4m8-4v5m5-5v4" stroke="#3D4749" stroke-width="2" stroke-linecap="round" stroke-linejoin="round"/>
    <path d="M404.09 99.4l7.46 5.06-2.94 2.47-8.7-5.84 4.18-1.69zm-6.009 2.92l7.14 5.94s-7.56 2.85-9.34.63c-1.78-2.22-.46-5 2.2-6.57z" fill="#ED5544"/>
    <path d="M397.17 110.43l1.96 4.05m7.4-6.791c5.596-2.711 9.239-6.755 8.136-9.03-1.103-2.277-6.534-1.925-12.13.787-5.597 2.711-9.24 6.755-8.137 9.031 1.103 2.277 6.534 1.924 12.131-.788z" stroke="#3D4749" stroke-width="2" stroke-linecap="round" stroke-linejoin="round"/>
    <path d="M414.67 98.69l2.16 4.459c1.1 2.28-2.54 6.32-8.14 9.03-5.6 2.71-11.03 3.06-12.13.79l-2.16-4.46m7.61 1.571l1.57 3.25m5.721-6.779l1.97 4.05m1.7-6.831l1.96 4.06" stroke="#3D4749" stroke-width="2" stroke-linecap="round" stroke-linejoin="round"/>
    <path d="M366.879 126.41l5.03 5.1-8.66.45-3.72-6.54 7.35.99zm1.432-15.321l4.5 7.8-3.71.94-5.29-9.05 4.5.31zm-6.69.001l3.84 8.46s-8.05-.73-8.68-3.51c-.63-2.78 1.77-4.7 4.84-4.95zm-2.841-41.15s-9.88 6.96 0 9.35l-7.59-1.39s-9.67-6.34 2.94-7.96 4.65 0 4.65 0z" fill="#ED5544"/>
    <path d="M356.471 118.221v4m10.408-2.581c6.219 0 11.26-2.05 11.26-4.58 0-2.529-5.041-4.58-11.26-4.58-6.219 0-11.26 2.051-11.26 4.58 0 2.53 5.041 4.58 11.26 4.58z" stroke="#3D4749" stroke-width="2" stroke-linecap="round" stroke-linejoin="round"/>
    <path d="M378.139 115.061v4.96c0 2.53-5.04 4.58-11.26 4.58s-11.26-2.05-11.26-4.58v-4.96m5.852 5.16v3m8-3v4m4-5v4M358.78 79.1c6.218 0 11.26-2.051 11.26-4.58 0-2.53-5.042-4.58-11.26-4.58-6.219 0-11.26 2.05-11.26 4.58 0 2.529 5.041 4.58 11.26 4.58z" stroke="#3D4749" stroke-width="2" stroke-linecap="round" stroke-linejoin="round"/>
    <path d="M370.04 74.52v4.96c0 2.53-5.04 4.58-11.26 4.58s-11.26-2.05-11.26-4.58v-4.96m3.951 3.7v5m8-4v5m5-6v5" stroke="#3D4749" stroke-width="2" stroke-linecap="round" stroke-linejoin="round"/>
    <path d="M323.67 42.83s-2.7 11.78 6.25 6.96l-6.58 4.04s-11.44 1.74-3.13-7.88c8.3-9.63 3.46-3.11 3.46-3.11v-.01z" fill="#ED5544"/>
    <path d="M329.793 49.65c4.626-4.156 7.007-9.05 5.316-10.932-1.69-1.882-6.811-.038-11.437 4.117-4.627 4.156-7.007 9.05-5.317 10.932 1.691 1.881 6.811.038 11.438-4.117z" stroke="#3D4749" stroke-width="2" stroke-linecap="round" stroke-linejoin="round"/>
    <path d="M335.1 38.71l3.31 3.69c1.69 1.88-.69 6.78-5.32 10.93-4.63 4.15-9.75 6-11.44 4.12l-3.31-3.69m5.81-.06l3.01 3.35m3.619-8.09l3.01 3.35m-.26-7.04l3.01 3.36" stroke="#3D4749" stroke-width="2" stroke-linecap="round" stroke-linejoin="round"/>
    <path d="M259.55 14.57s9.46 7.51 8.97-2.64l.81 7.68s-3.36 11.07-8.46-.57c-5.11-11.64-1.31-4.47-1.31-4.47h-.01z" fill="#ED5544"/>
    <path d="M267.129 24.068c2.427-.714 2.97-6.129 1.214-12.095-1.755-5.965-5.146-10.222-7.572-9.508-2.427.714-2.971 6.129-1.215 12.095 1.756 5.965 5.146 10.223 7.573 9.508z" stroke="#3D4749" stroke-width="2" stroke-linecap="round" stroke-linejoin="round"/>
    <path d="M260.77 2.48l4.76-1.4c2.43-.71 5.82 3.54 7.57 9.51 1.76 5.97 1.21 11.38-1.21 12.1l-4.76 1.4m2.44-5.26l4.32-1.27m-5.74-6.77l4.32-1.27m-6.46-2.79l4.32-1.27m85.141 124.761v5m19.179-10.471c1.62.79 2.6 1.81 2.6 2.93 0 2.53-5.04 4.58-11.26 4.58s-11.26-2.05-11.26-4.58c0-1.11.98-2.13 2.6-2.93" stroke="#3D4749" stroke-width="2" stroke-linecap="round" stroke-linejoin="round"/>
    <path d="M377.241 127.68v4.96c0 2.53-5.04 4.58-11.26 4.58s-11.26-2.05-11.26-4.58v-4.96m5.75 4.541v4m8-4v5m5-6v4" stroke="#3D4749" stroke-width="2" stroke-linecap="round" stroke-linejoin="round"/>
    <path d="M407.42 155.23l5.03 5.1-8.66.45-3.72-6.53 7.35.98z" fill="#ED5544"/>
    <path d="M396.471 159.221v5m18.719-10.641c1.62.79 2.6 1.81 2.6 2.93 0 2.53-5.04 4.58-11.26 4.58s-11.26-2.05-11.26-4.58c0-1.11.98-2.13 2.6-2.93" stroke="#3D4749" stroke-width="2" stroke-linecap="round" stroke-linejoin="round"/>
    <path d="M417.78 156.51v4.96c0 2.53-5.04 4.58-11.26 4.58s-11.26-2.05-11.26-4.58v-4.96m5.211 4.711v4m9-4v5m4-6v4" stroke="#3D4749" stroke-width="2" stroke-linecap="round" stroke-linejoin="round"/>
    <path d="M407.42 168.75l5.03 5.1-8.66.45-3.72-6.54 7.35.99z" fill="#ED5544"/>
    <path d="M396.471 173.221v4" stroke="#3D4749" stroke-width="2" stroke-linecap="round" stroke-linejoin="round"/>
    <path d="M415.19 167.09c1.62.79 2.6 1.81 2.6 2.93 0 2.53-5.04 4.58-11.26 4.58s-11.26-2.05-11.26-4.58c0-1.11.98-2.13 2.6-2.93" stroke="#3D4749" stroke-width="1.35" stroke-linecap="round" stroke-linejoin="round"/>
    <path d="M417.78 170.02v4.96c0 2.53-5.04 4.58-11.26 4.58s-11.26-2.05-11.26-4.58v-4.96m5.211 5.201v3m9-3v4m4-5v3m-156.46-22.371c2.63 4.19 7.33 19.86 1.45 22.67-4.47 2.14-9.88 1.94-12.65-2.17" stroke="#3D4749" stroke-width="2" stroke-linecap="round" stroke-linejoin="round"/>
    <path d="M134.91 121.55c6.04 22.25 4.06 60.51-11.46 69.84-6.26 3.76-16.85 1.57-22.86-.58-8.9-3.18-16.58-12.26-20.18-25.54-6.04-22.25 1.64-47.84 17.15-57.18 4.67-2.81 9.53-3.83 14.19-3.26 10.82 1.31 18.94 1.17 23.16 16.72v0z" fill="#fff" stroke="#3D4749" stroke-width="2" stroke-linecap="round" stroke-linejoin="round"/>
    <path d="M147.241 150.716c.821-24.115-11.995-44.124-28.626-44.69-16.631-.566-30.778 18.524-31.599 42.639-.821 24.116 11.995 44.124 28.626 44.69 16.631.567 30.778-18.524 31.599-42.639z" fill="#ED5544" stroke="#3D4749" stroke-width="1.3" stroke-miterlimit="10"/>
    <path d="M109.319 137.81l.36-10.45-6.49-.01m26.92 12.78l5.46 6 3.71-8.36M114.8 167.719l-6.37 3.82 2.38 9.22" stroke="#F2F2F2" stroke-width="2.17" stroke-linecap="round" stroke-linejoin="round"/>
    <path d="M104.309 164.01c-.56-1.35-1.04-2.81-1.44-4.36-2.86-11.2-.26-23.82 5.82-30.88m26.34 27.099c-1.38 7.72-5.01 14.47-10.19 17.79-5.18 3.32-10.75 2.46-15.13-1.57m6.971-48.47c7.5-1.68 14.94 4.54 17.8 15.78.4 1.55.69 3.13.88 4.72" stroke="#F2F2F2" stroke-width="2.17" stroke-linecap="round" stroke-linejoin="round"/>
    <path d="M198.721 158.22c.75-1.75 21 9.25 21 9.25" stroke="#3D4749" stroke-width="2" stroke-linecap="round" stroke-linejoin="round"/>
    <path d="M244.127 177.462c5.547-5.845 5.776-14.633.512-19.628-5.264-4.996-14.028-4.307-19.574 1.538-5.547 5.845-5.776 14.633-.512 19.628 5.264 4.995 14.028 4.307 19.574-1.538z" stroke="#3D4749" stroke-width="2.11" stroke-linecap="round" stroke-linejoin="round"/>
    <path d="M268.471 190.891s16 33.33-26.33 41.33-36.67-27.33-40.67-37c-4-9.67-9-14.67-16-16.67" stroke="#3D4749" stroke-width="2.5" stroke-linecap="round" stroke-linejoin="round"/>
    <path d="M183.641 241.22c-.17-.5-22.17-16.17-47-15.5l2.17 2.67" stroke="#3D4749" stroke-width="2" stroke-linecap="round" stroke-linejoin="round"/>
    <path d="M268.47 152.721l18 14.37-2.33 4.55-19.05-16.92 3.38-2z" fill="#ED5543"/>
    <path d="M260.66 160.7c1.99-5.41 7.03-9.63 12.93-10.25 7.65-.8 13.85 4.74 13.85 12.39s-6.2 14.5-13.85 15.3c-5.04.53-9.45-1.7-11.87-5.47" stroke="#3D4749" stroke-width="2.11" stroke-linecap="round" stroke-linejoin="round"/>
    <path d="M279.641 216.721c2-11.5 24.17-18.33 28.5-18.67l-2 2.17" stroke="#3D4749" stroke-width="2.5" stroke-linecap="round" stroke-linejoin="round"/>
    <path d="M248.14 166.799c-.92-3.83 4.03-6.55 6.17-6.92 1.92-.33 4.25.25 5.08 2" stroke="#3D4749" stroke-width="2.11" stroke-linecap="round" stroke-linejoin="round"/>
    <path d="M258.64 106.91c2.77-2.51 4.42-5.95 4.27-9.68-.1-2.56-1.06-4.91-2.6-6.88.75-1.52 1.16-3.2 1.09-4.97-.18-4.51-3.33-8.27-7.69-9.9v-.23c-.14-3.42-2.56-6.31-6.07-7.84 0-.18.02-.37 0-.55-.31-7.59-7.6-13.48-16.26-13.13-1.51.06-2.96.32-4.33.72-1.47-3.33-5.04-5.62-9.12-5.46-1.96.08-3.75.71-5.22 1.72-2.16-1.17-4.63-1.81-7.25-1.7-6.61.27-11.98 5.09-13.27 11.34-5.55.35-9.84 5.41-9.6 11.4.04.92.19 1.8.42 2.65a9.965 9.965 0 00-1.88 6.28c.01.37.05.73.11 1.09-4.42 2.18-7.34 6.37-7.16 11.07.11 2.82 1.34 5.36 3.28 7.34a8.57 8.57 0 001.45 3.26c-.55.89-.85 1.87-.81 2.91.11 2.74 2.53 4.97 5.8 5.73a9.41 9.41 0 00-.97 4.5c.22 5.54 5.3 9.86 11.31 9.62" stroke="#3D4749" stroke-width="2.49" stroke-linecap="round" stroke-linejoin="round"/>
    <path d="M202.53 163.279s-4.69 1.42-5 5.12c-.25 3-.88 8.38 7.88 12.69 8.76 4.31 1.62-14.75 1.62-14.75l-4.5-3.06z" fill="#ED5543"/>
  </g>
  <defs>
    <clipPath id="v3KiMF0rGa">
      <path fill="#fff" d="M0 0h419.68v333.37H0z"/>
    </clipPath>
  </defs>
</svg>
