<svg xmlns="http://www.w3.org/2000/svg" fill="none" viewBox="0 0 399 347">
  <g clip-path="url(#OsAx1NIYqa)">
    <path d="M190.141 282.039c-4.2-3.62-12.09-10.67-12.09-20.32s.17-8.44.17-8.44-6.04-9.13-3.02-14.29c3.02-5.16 7.39-7.58 7.39-7.58s-4.55-23.8 26.77-23.8l-16.28-8.91-13.09 6.2s-9.57 6.2-10.32 13.17c-.76 6.97 1.29 18.96 1.29 18.96s-7.58 1.7-7.58 5.31c0 3.61 2.01 12.65 5.54 13.95 3.53 1.3 4.03 7.49 4.03 7.49l4.78 11.11 12.42 7.15h-.01z" fill="#ED5544"/>
    <path d="M181.04 303.631l-16.72-11.25-2.07 4.21 13.82 9 4.97-1.96zm14.111 9.478l-4.6 1.91 7.27 4.73 2.37-3.25-5.04-3.39zM83.14 28.04s4.61 1.51 4.61 6.56-1.35 19.28-1.35 19.28-11.45 1.11-12.48 1.31c-1.03.2-13.65 5.32-13.76 7.9-.11 2.58-6.11-4.04-7.89-2.54-1.78 1.5-3.16-5.89-6.81-3.95-3.65 1.94 7.33-24.46 37.69-28.56h-.01zm24.48 5.05c-3.23-1.9-6.88-3.08-10.62-3.41-1.12-.1-2.28-.12-3.33.26-3.23 1.18-4.02 5.35-4.06 8.79-.06 4.77.31 9.55 1.11 14.26.1.6.26 1.26.78 1.57.5.29 1.13.13 1.69 0 7.5-1.88 16.03 1.58 20.08 8.17 3.3 5.36 1.74 9.47 4.57 15.09 1.44 2.85 5.14 6.1 5.94 9.19.18.68-1.29 5.69-.8 6.19.46.47 3.04-.91 3.67-.71 6.18 1.97 9.66 9.059 6.96 14.959-1.12 2.44-4.91 3.43-3.49 5.71 4.43 7.16-3.75 8.78-6.36 7.75-1.53-.6-1.4-1.32-2.12-2.8-3.03 5.42-13.83 8.88-15.69 14.81-1.39 4.43-1.43 12.59.73 16.7 1.04 1.97 1.14 4.72 2.79 6.23 3.73 3.41 15 2.01 20.05 1.79 3.07-.13 6.28-.31 8.94-1.84 5.37-3.09 3.58-12.02 4.04-18.2 1.02-13.5.16-27.02.08-40.55-.05-9.35-.56-15.11-2.86-24.17-2.3-9.06-7.76-21.02-14.39-27.61-3.87-3.84-5.49-4.91-10.05-7.91-4.64-3.05-10.45-8.6-15.42-6.12" fill="#ED5543"/>
    <path d="M91.65 105.369h-9.23c-1.34 0-.67-3.48-.67-5.35 0-1.87.17-3.35.27-5.49.27-5.69-3.75-10.17-8.7-10.17H60.88M95.4 89.18s4.95-4.82 8.56-4.82h12.85" stroke="#3D4749" stroke-width="2" stroke-linecap="round" stroke-linejoin="round"/>
    <path d="M95.57 55.61c16.191 0 21.141 10.44 21.141 22.08 0 0 6.69 5.08 6.69 10.7v20.469c0 6.16-8.16 20.34-15.92 20.34h-38.51c-7.76 0-15.92-14.18-15.92-20.34v-20.47c0-5.62 6.69-10.7 6.69-10.7 0-11.64 4.95-22.08 21.14-22.08" stroke="#3D4749" stroke-width="2" stroke-linecap="round" stroke-linejoin="round"/>
    <path d="M53.04 92.94c-4.95 0-8.97 3.61-8.97 8.969 0 5.36 4.04 12.44 10.25 12.44m71.261-21.409c4.95 0 8.97 3.61 8.97 8.969 0 5.36-4.04 12.44-10.25 12.44" stroke="#3D4749" stroke-width="2" stroke-linecap="round" stroke-linejoin="round"/>
    <path d="M126.959 121.651a4.84 4.84 0 100-9.68 4.84 4.84 0 000 9.68zm-77.759 0a4.84 4.84 0 100-9.68 4.84 4.84 0 000 9.68zm56.29 7.548s-1.74 11.11-16.99 11.11c-15.25 0-17.93-11.11-17.93-11.11" stroke="#3D4749" stroke-width="2" stroke-linecap="round" stroke-linejoin="round"/>
    <path d="M105.491 136.301v6.56c0 5.62 2.94 15.12 11.24 15.12h15.06c5.28 0 11.16-5.35 11.16-12.04v-55.06c0-28.44-19.03-61.75-54.74-61.75" stroke="#3D4749" stroke-width="2" stroke-linecap="round" stroke-linejoin="round"/>
    <path d="M36.03 128.169v-37.3c0-28.44 19.03-61.75 54.74-61.75" stroke="#3D4749" stroke-width="2" stroke-linecap="round" stroke-linejoin="round"/>
    <path d="M374.559 162.129c.22-1.23-.91-7.22-1.33-8.69-.68-2.4-3.67 1.28-4.8 3.95-2.66 6.31-2.42 5.47-9.63 1.96-2.79-1.35-5.59-3.35-8.56-2.15-2.32.94-3.67.47-6.27.31-1.34-.08-5.04 3.05-5.51 3.94-.78 0-6.01-.27-9.09-7.05-1.62-3.56 1.04-7.12-.41-10.89-1.46-3.81-7.67-2.16-6.18 1.7 1.58 4.12 1.56 6.36 1.61 10.6 0 .09-1.6 1.78-1.59 1.87-.29.35-.51.78-.58 1.34-.37 2.63 1.76 8.59 1.18 11.27-.65 2.98-1.53 6.01-.77 8.9.65 2.44 2.53 2.84 4.21 1.6 3.51 3.64 7.3 6.55 10.88 10.12 3.72 3.71 4.63 2.06 6.66 3.69 2.18 1.75 4.25 4.12 7.16 4.01 2.36-.09 2.99-2.75 4.89-4.34 1.45-1.2 3.83-2.28 4.96-3.73 2.46-.74 5.26-1.46 5.15-4.28-.02-.46 1.2-.59 1.08-.98.19-.15-.9-.59-.69-.73 1.52-1.02 3.22-1.7 4.26-3.3.28-.42.47-.84.62-1.26 1.85-.28 5.68.23 4.88-1.73-.39-.97 1.08-2.49.7-3.59 0-.21-.37-2.03-.36-2.23.83-.16-2.08-.58-1.38-1.57.46-.65-.72-2.88-.37-3.18 2.33-2 1.69-5.26-.73-5.58l.01.02zm-17.85 53.752s-.31 4.65-4.15 4.88c-3.84.23-8.62.3-8.62.3v22.28l30.68-1.5.61-19.14s-5.16-.05-6.96-.55c-1.8-.5-3.55-6.26-3.55-6.26h-8l-.01-.01z" fill="#ED5543"/>
    <path d="M322 143.49v-14.55c0-3.1 12.67-18.94 27.14-18.94s23.67 16.48 23.67 20.29v17.73" stroke="#3D4749" stroke-width="2" stroke-linecap="round" stroke-linejoin="round"/>
    <path d="M369.59 139.789h-7.92c-2.64 0-6.08 2.75-6.08 4.94v8.84c0 1.72-.98 3.67-2.78 3.67-1.81 0-4.79-.23-4.79-3.56m-4.05-13.89h-12.4m12.491 23.762s2.9 1.64 6.43 1.64 5.94-1.64 5.94-1.64m-19.951-2.071c2.24 0 4.22-4.25 9.9-4.25m-23.169.341s-7.15-.34-7.15-6.71 7.15-6.8 7.15-6.8" stroke="#3D4749" stroke-width="2" stroke-linecap="round" stroke-linejoin="round"/>
    <path d="M365.589 161.541s8.02-13.45 8.02-8.54c0 0-.8 5.16 2.42 10.55.71 1.19-1.1 2.78-.73 4.16.8 3.06 2.95 5.28 1.75 9.69-.83 3.06-4.01 3.41-7.01 4.41-3.01 1-2.2 8.22-6.41 8.22s-2.2 3.21-6.41 4.01c-4.21.8-5.82 11.02-13.23 0 0 0-3.58 2-6.2-3.81 0 0-4.37 0-6.2-5.41s-9.81-1-9.03-6.61c.78-5.61-.28-10.22 1.45-11.82 1.73-1.6.6-17.5.6-17.5" stroke="#3D4749" stroke-width="2" stroke-linecap="round" stroke-linejoin="round"/>
    <path d="M354.039 157.199c.71 0 1.36.07 1.96.18 4.22.81 5.98 4.06 7.94 4.06" stroke="#3D4749" stroke-width="2" stroke-linecap="round" stroke-linejoin="round"/>
    <path d="M339.529 147.98c-.92 0-1.66-.74-1.66-1.66 0-.33.1-.63.26-.88-.1-.01-.2-.03-.3-.03-1.46 0-2.64 1.18-2.64 2.64 0 1.46 1.18 2.64 2.64 2.64 1.46 0 2.64-1.18 2.64-2.64 0-.12-.02-.23-.03-.34-.26.17-.57.27-.91.27zm24.1 0c-.92 0-1.66-.74-1.66-1.66 0-.33.1-.63.26-.88-.1-.01-.2-.03-.3-.03-1.46 0-2.64 1.18-2.64 2.64 0 1.46 1.18 2.64 2.64 2.64 1.46 0 2.64-1.18 2.64-2.64 0-.12-.02-.23-.03-.34-.26.17-.57.27-.91.27z" fill="#3D4749"/>
    <path d="M321.641 175.51s-22.16 7.47-28.84 18.27m74.629 44.999c4.092 0 7.41-2.964 7.41-6.62s-3.318-6.62-7.41-6.62c-4.093 0-7.41 2.964-7.41 6.62s3.317 6.62 7.41 6.62z" stroke="#3D4749" stroke-width="2" stroke-linecap="round" stroke-linejoin="round"/>
    <path d="M368.66 225.659l-8.18-1.3c-4.18 0-7.56 3.18-7.56 7.1 0 3.92 3.39 7.1 7.56 7.1l6.94.24" stroke="#3D4749" stroke-width="2" stroke-linecap="round" stroke-linejoin="round"/>
    <path d="M367.941 221.52l7.97.56v20.31l-31.43 1.61-6.37-1.07-.4-20.85 6.77-1.6 9.38.64" stroke="#3D4749" stroke-width="2" stroke-linecap="round" stroke-linejoin="round"/>
    <path d="M368.029 221.599c-1.54-1.98-2.41-5.52-2.41-5.52l-9.18-.8s-3.34.57-4.4 1.2v3.66" stroke="#3D4749" stroke-width="2" stroke-linecap="round" stroke-linejoin="round"/>
    <path d="M368.73 235.451a3.57 3.57 0 100-7.14 3.57 3.57 0 000 7.14z" fill="#fff"/>
    <path d="M366.679 236.121a2.74 2.74 0 100-5.48 2.74 2.74 0 000 5.48z" fill="#ED5543"/>
    <path d="M318.061 177.461l22.41 43.29m-7.241-32.921l13.81 31.98m23.39.67l3.87-38.88-2.64-.95m-3.8 4.02L364 215.23m-63.891-28.849c12.4 0 18.81 11.25 18.81 24.48m55.382-29.261s7.15 5.81 11.56 10.42 11.23 22.38 12.03 24.12m-218.452 61.491c-6.33 2.67-21.5 2.92-40.5 24.92m87.17-24.84c6.33 2.67 21.83 2.83 40.83 24.83m-127.66 34.289s20.8-3.6 24.8-20c0 0-.8-7.2 10.4-11.6 11.2-4.4 17.8-2.8 17.8-2.8 1.2.2 2.15 1.65 2.3 3.18" stroke="#3D4749" stroke-width="2" stroke-linecap="round" stroke-linejoin="round"/>
    <path d="M181.68 316.72l16.3-4.3s1.6-.9 1.2-3.3c-.4-2.4-2.5-1.9-2.5-1.9-6-.8-19.2 3.8-19.2 3.8m6.401 5.5s2.8-.7 4.8.9 1.74 4.06 1.74 4.06m-23.642 23.65c14.3.2 21.5-9 22.6-16.4" stroke="#3D4749" stroke-width="2" stroke-linecap="round" stroke-linejoin="round"/>
    <path d="M183.68 323.72c.6 0 9.8-3.6 11-.7 1.2 2.9 1.1 6.7-4 8.6m8.28-20.11l4.26 2.73 3.67 7.75-9.25-1.53s-3.8-2.33-8.91-5.54m-14.68-9.421c-6.51-4.31-11.82-8.08-11.8-8.92.06-2.15.91-3.95 4.02-6.05l16.75 10.74" stroke="#3D4749" stroke-width="2" stroke-linecap="round" stroke-linejoin="round"/>
    <path d="M332.34 122.69a.92.92 0 100-1.84.92.92 0 000 1.84zm6.369-2.68a.92.92 0 100-1.84.92.92 0 000 1.84zm2.701 6.859a.92.92 0 100-1.84.92.92 0 000 1.84zm-11.59 1.481a.92.92 0 10.001-1.839.92.92 0 00-.001 1.839zm5.37-1.25a.92.92 0 100-1.84.92.92 0 000 1.84z" fill="#3D4749"/>
    <path d="M45.45 165.018c.1 1.12.19 2.24.05 3.36l.1-.76c-.07.53-.2 1.04-.4 1.54l.29-.68c-.17.4-.38.77-.64 1.12l.45-.58c-.2.25-.43.48-.68.68l.58-.45c-.18.14-.37.25-.58.34l.68-.29c-.07.03-.15.05-.22.05l.76-.1h-.2l.76.1a.983.983 0 01-.16-.05l.68.29s-.1-.05-.14-.09l.58.45a.958.958 0 01-.17-.18l.45.58c-.05-.08-.09-.15-.12-.23l.29.68c-.03-.09-.05-.17-.07-.26l.1.76c-.01-.12-.01-.23 0-.35l-.1.76c.02-.11.05-.21.09-.32l-.29.68c.18-.42.47-.77.74-1.13.3-.4.57-.82.82-1.26.6-1.04 1.07-2.18 1.42-3.33.44-1.43-.52-3.18-2-3.52-1.48-.34-3.06.47-3.52 2-.13.44-.29.87-.47 1.3l.29-.68c-.45 1.06-1.04 2.01-1.73 2.93-1.24 1.65-1.33 3.88.08 5.46.89.99 2.27 1.31 3.54 1.01.87-.21 1.73-.84 2.35-1.47.96-.99 1.65-2.29 1.95-3.64.36-1.57.3-3.14.16-4.73-.07-.77-.27-1.46-.84-2.02-.5-.5-1.31-.87-2.02-.84-.71.03-1.51.28-2.02.84-.49.53-.91 1.28-.84 2.02v.01zm-.43-24.038c-2.75.16-.19 9.16 6.68 11.26 6.87 2.1 15.27 14.31 15.27 14.31 5.53 5.92 18.13 8.02 21.37 18.32 3.24 10.31-1.72 12.02-1.72 12.02s13.74 1.91 15.84 17.37c0 0-8.59-11.45-17.37-9.54-8.78 1.91-11.45 13.74-8.97 17.94 2.48 4.2 25.19 5.34 25.19 5.34l6.3-6.49s12.6-10.31 8.78-26.34c-3.82-16.03-11.07-33.01-44.85-37.02 0 0-4.58 1.34-8.02-2.86-3.44-4.2-8.4-14.89-18.51-14.31h.01z" fill="#ED5544"/>
    <path d="M44.9 140.659l-12.89-7.12 1.58 9.79m-3.15-3.5l-7.17-.87 6.29 7.87m15.079 25.64c3.15 3.15 6.51 16.15 11.06 27.17 4.55 11.02 3.15 20.81 1.57 22.38m46.88 1.751c20.64-9.96 21.91-63.39-38.59-66.17m6.44 37.388c1.27 4.58.13 26.59-6.62 32.7" stroke="#3D4749" stroke-width="1.91" stroke-linecap="round" stroke-linejoin="round"/>
    <path d="M93.88 204.528c-3.44-4.96-20.86-9.16-22.01 7.25-1.15 16.41 19.59 16.03 19.59 16.03m-46.331-87.099c13.63 2.58 20.78 17.07 20.78 17.07M45.28 167.89s-4.83 6.49-12.85 4.2c-11.08-3.16-7.12-16.03-1.47-25.43 0 0 .7-1.36 2.24-2.81" stroke="#3D4749" stroke-width="1.91" stroke-linecap="round" stroke-linejoin="round"/>
    <path d="M32.939 164.328l-2.67 2.16-2.8-1.53m5.441-5.749l.57-2.96s3.15 1.43 5.15-.38" stroke="#3D4749" stroke-width="1.91" stroke-linecap="round" stroke-linejoin="round"/>
    <path d="M70.61 132.211l-27 7.33M6.63 215.98c1.87 35.6 13.49 38.31 82.82 32.15 19.881-1.77 36.121-7.38 40.751-28.75 5.25-24.25.5-44.25-10.25-42s-7.75 2-7.75 2M28.49 145.721c-9.06 4.68-11.87 15.93-26.23 64.01-.67 2.26-1.09 4.55-1.26 6.86" stroke="#3D4749" stroke-width="2" stroke-linecap="round" stroke-linejoin="round"/>
    <path d="M72.57 97.26a4.75 4.75 0 100-9.5 4.75 4.75 0 000 9.5zm29.83 0a4.75 4.75 0 100-9.5 4.75 4.75 0 000 9.5z" fill="#3D4749"/>
    <path d="M99.12 111.939c-2.31 2.8-6.7 4.69-11.72 4.69-5.02 0-9.14-1.78-11.51-4.44M56.9 215.039s-13.92-6.25-27.48-6.25c-12.49 0-27.79 6.25-27.79 6.25m56.21-4.988c-5.31-9.68-14.68-10.62-26.54-25.92" stroke="#3D4749" stroke-width="2" stroke-linecap="round" stroke-linejoin="round"/>
    <path d="M113.189 227.63c-7-4-9-12.25-5-23.25s1-16.75 1-16.75 12-5.75 10 15.75" fill="#FBF6F4"/>
    <path d="M113.189 227.63c-7-4-9-12.25-5-23.25s1-16.75 1-16.75 12-5.75 10 15.75" stroke="#3D4749" stroke-width="2" stroke-linecap="round" stroke-linejoin="round"/>
    <path d="M42.82 10.38s-4.85 1.92-6.01 3.06c-1.24 1.22-3.37 6.31-3.37 6.31s-2.48-5.12-3.78-6.38c-1.1-1.07-5.6-2.99-5.6-2.99s4.76-1.84 5.89-2.95C31.22 6.19 33.43 1 33.43 1s2.14 5.09 3.37 6.31c1.16 1.15 6.01 3.06 6.01 3.06l.01.01zm222.501 98.5s-4.85 1.92-6.01 3.06c-1.24 1.22-3.37 6.31-3.37 6.31s-2.48-5.12-3.78-6.38c-1.1-1.07-5.6-2.99-5.6-2.99s4.76-1.84 5.89-2.95c1.27-1.24 3.48-6.43 3.48-6.43s2.14 5.09 3.37 6.31c1.16 1.15 6.01 3.06 6.01 3.06l.01.01zm-81.361 12.519s-4.21.28-5.38.87c-1.25.64-4.16 4.03-4.16 4.03s-.64-4.56-1.33-5.85c-.58-1.1-3.57-3.69-3.57-3.69s4.12-.24 5.27-.81c1.29-.64 4.27-4.09 4.27-4.09s.38 4.45 1.03 5.7c.61 1.17 3.87 3.85 3.87 3.85v-.01zm.261-4.419l3.51-.55m-21.501 5.011l3.51-.55m10.52 4.888l.94 3.43m-8.44-20.549l.94 3.43m147.4 169.53s-4.21.28-5.38.87c-1.25.64-4.16 4.03-4.16 4.03s-.64-4.56-1.33-5.85c-.58-1.1-3.57-3.69-3.57-3.69s4.12-.24 5.27-.81c1.29-.64 4.27-4.09 4.27-4.09s.38 4.45 1.03 5.7c.61 1.17 3.87 3.85 3.87 3.85v-.01zm.259-4.42l3.51-.55m-21.5 5.011l3.51-.54M317.398 286l.94 3.43m-8.44-20.539l.93 3.43" stroke="#ED5544" stroke-width="2" stroke-linecap="round" stroke-linejoin="round"/>
    <path d="M172.121 238.78c-2.66-1.1-5.7-.64-7.77 2.97-3.3 5.74 1.37 16.59 7.7 15.95m63.299-18.92c2.66-1.1 5.7-.64 7.77 2.97 3.3 5.74-3.21 16.59-9.53 15.95m.93 1.15c-1.08 18.19-14.49 24.95-31.58 24.95-17.09 0-29.5-6.93-30.53-24.95m21.76-32.47c-3.73-.41-7.59 1.95-8.92 5.46m28.15-5.921c3.67-.78 7.75 1.2 9.41 4.56" stroke="#3D4749" stroke-width="2" stroke-linecap="round" stroke-linejoin="round"/>
    <path d="M208.271 242.869c2.1 3.34 3.79 16.84-.89 19.08-3.56 1.7-7.87 1.54-10.07-1.73M178.4 278.631c-3.8 3.41-5.68 9.51-4.95 15.82m52.93-15.82c9.55 8.56 6.99 34.2-18.79 37.1m7.71-52.1c0 4.05-4.99 7.33-11.14 7.33s-11.14-3.28-11.14-7.33" stroke="#3D4749" stroke-width="2" stroke-linecap="round" stroke-linejoin="round"/>
    <path d="M200.641 243.321c0-1.16 1.62-2.93 4.09-2.93 2.47 0 4.63 1.08 4.63 2.7" stroke="#3D4749" stroke-width="2" stroke-linecap="round" stroke-linejoin="round"/>
    <path d="M69.44 93.13a2.25 2.25 0 100-4.5 2.25 2.25 0 000 4.5zm29.03.01c1.414 0 2.56-.97 2.56-2.17 0-1.198-1.146-2.17-2.56-2.17-1.414 0-2.56.972-2.56 2.17 0 1.2 1.146 2.17 2.56 2.17z" fill="#FBF6F4"/>
    <path d="M176.07 239.881l13.12 12.62m-13.12-7.62l13.12 12.62" stroke="#ED5544" stroke-width="2.11" stroke-linecap="round" stroke-linejoin="round"/>
    <path d="M217.939 233.381l17.13 14.5-2.13 4.37-18.75-16.37 3.75-2.5z" fill="#ED5543"/>
    <path d="M212.07 237.5l18 18.38" stroke="#ED5544" stroke-width="2.11" stroke-linecap="round" stroke-linejoin="round"/>
    <path d="M188.02 258.441c7.147 0 12.94-5.794 12.94-12.94 0-7.147-5.793-12.94-12.94-12.94-7.146 0-12.94 5.793-12.94 12.94 0 7.146 5.794 12.94 12.94 12.94z" stroke="#3D4749" stroke-width="2" stroke-linecap="round" stroke-linejoin="round"/>
    <path d="M191.859 246.881a3.75 3.75 0 100-7.5 3.75 3.75 0 000 7.5zm26.68 0a3.75 3.75 0 100-7.5 3.75 3.75 0 000 7.5z" fill="#3D4749"/>
    <path d="M209.32 243.72c.87-6.3 6.28-11.15 12.81-11.15 7.14 0 12.94 5.79 12.94 12.94 0 7.15-5.79 12.94-12.94 12.94-5.05 0-9.42-2.89-11.55-7.11" stroke="#3D4749" stroke-width="2" stroke-linecap="round" stroke-linejoin="round"/>
    <path d="M100.069 225.729c3.25 5.19 4.32 14.04 0 19.91-3.87 5.27-9.22 8.17-15.36 9.3-5.62 1.04-13.33.83-18.93-.42-6.8-1.52-12.92-4.73-19.46-7-4.18-1.46-5.98 5.18-1.83 6.62 5.65 1.97 10.98 4.63 16.75 6.29 5.31 1.53 10.49 1.81 15.98 1.37 7.48-.6 15.36-2.03 21.8-6.12 8.27-5.27 11.86-14.23 10.35-23.78-.52-3.33-1.57-6.78-3.37-9.65-2.34-3.74-8.29-.29-5.93 3.47v.01z" fill="#ED5544"/>
    <path d="M105.709 223.74c4.24 3.05 5 10.03 4.2 14.84-1.86 11.18-11.73 18.49-22.04 21.47-13.86 3.99-28.53.04-41.68-4.7-2.2-.79-4.8-2.2-4.7-4.53.08-1.96 2.24-3.29 4.2-3.24 1.96.05 3.75 1.07 5.48 1.98 9.28 4.88 20.14 6.21 30.68 5.87 16.19-.53 27.86-16.55 18.13-29.33" stroke="#3D4749" stroke-width="2" stroke-linecap="round" stroke-linejoin="round"/>
    <path d="M173.56 236.451c-1.08-8.29 3.98-32.95 30.36-29.27 26.38 3.68 32 14.1 30.53 31.19l3.17-.5s3.45-16.77-6.33-27.67c-10.33-11.5-25.19-15.29-34-14.83-16 .83-21.33 8.5-21.33 8.5s-8.83 15.93-6.48 25.41l.38 2.84.14 4.18 3.57.15h-.01z" fill="#ED5543"/>
    <path d="M188.401 195.08c-3.43-1.89-7.16-3.46-5.36-6.54.52-.89 0-2.02.85-2.53-1.56-1.51 1.49-1.83 2.38-3.35.34-.57-1.67-3.28-1.06-3.58-.05-.77-.02-1.41.25-2.13-.39-1.73 2.28-2.14 3.19-3.7 1.53-2.6 4.01-4.43 7.23-4.12.09-.21.2-.42.32-.62a6.46 6.46 0 013.23-2.76c.16-.54.39-1.07.69-1.58 1.95-3.33 6.1-4.62 9.32-2.94 2.89-2.95 7.56-3.75 11.34-1.66 1.5.83 2.65 2 3.45 3.36 1.17-.05 2.39.21 3.51.83 2.33 1.29 3.52 3.73 3.18 6.03.9.24 1.8.59 2.66 1.07 4.94 2.73 6.95 8.38 4.48 12.59-.06.1-.13.2-.2.3 1.42 2.01 1.76 4.39.65 6.29-.02.04-.06.08-.08.12 1.87 2.35 2.31 5.45.84 7.95-.57.98-1.38 1.75-2.33 2.32.17 1.58-.11 3.18-.95 4.6-1.21 2.07-3.59-.27-5.38-1.96-8.83-8.33-24.5-10.48-24.5-10.48l-17.71 2.51v-.02z" fill="#ED5543"/>
    <path d="M169.94 237.04c-3.31-16.09 1.2-45.4 34.52-44.33 31.05 1 39.74 26.65 32.81 43.83" stroke="#3D4749" stroke-width="2" stroke-linecap="round" stroke-linejoin="round"/>
    <path d="M237 208.41c2.8-.49 5.25-2.01 6.65-4.4.97-1.64 1.3-3.49 1.1-5.32 1.1-.66 2.04-1.56 2.7-2.69 1.7-2.9 1.19-6.48-.97-9.2.03-.05.07-.09.09-.14 1.29-2.19.89-4.95-.75-7.28.07-.12.16-.22.23-.34 2.86-4.87.53-11.41-5.19-14.57-1-.55-2.04-.96-3.08-1.23.4-2.66-.98-5.49-3.68-6.98a7.72 7.72 0 00-4.06-.96 10.44 10.44 0 00-3.99-3.89c-4.37-2.41-9.77-1.48-13.12 1.93-3.72-1.95-8.52-.45-10.78 3.4-.35.59-.6 1.2-.8 1.83a7.498 7.498 0 00-4.11 3.92c-3.73-.35-7.3 1.13-9.07 4.14-1.06 1.81-1.3 3.88-.84 5.88-.32.84-.44 1.72-.38 2.61-.71.34-1.3.84-1.69 1.51-1.03 1.76-.38 4.1 1.43 5.85-.99.6-1.83 1.42-2.44 2.45-2.09 3.56-.56 8.24 3.41 10.43" stroke="#3D4749" stroke-width="2" stroke-linecap="round" stroke-linejoin="round"/>
  </g>
  <defs>
    <clipPath id="OsAx1NIYqa">
      <path fill="#fff" d="M0 0h398.89v346.13H0z"/>
    </clipPath>
  </defs>
</svg>
