<svg xmlns="http://www.w3.org/2000/svg" fill="none" viewBox="0 0 213 198">
  <g clip-path="url(#02paXEa07a)">
    <path d="M87.66 79.75c.75-8.75 11.25-33 36.751-23.5 25.5 9.5 28.25 19.75 23 37 0 0 0 2.26 1.54.47 1.06-1.23 6.96-14.05 2.46-26.55-5.08-14.11-15.24-24.3-29-26.17-17.17-2.33-24 4.5-24 4.5s-13.5 15.75-13.25 26l-.25 3-.78 4.33 3.53.92z" fill="#ED5543"/>
    <path d="M153.291 60c2.5.09 1.93 2.82 3.6.95 1.15-1.28 1.78-2.85 1.96-4.52 1.07-.38 2.05-1 2.84-1.88 2.02-2.25 2.26-5.53.92-8.35.03-.04.07-.07.11-.11 1.53-1.71 1.71-4.23.74-6.6.09-.09.18-.17.26-.26 3.4-3.79 2.64-10.03-1.69-13.91-.75-.68-1.57-1.23-2.42-1.67.85-2.29.2-5.06-1.84-6.88a6.619 6.619 0 00-3.32-1.61 9.402 9.402 0 00-2.69-4.2c-3.3-2.96-8.14-3.15-11.68-.75-2.83-2.43-7.26-1.99-9.94 1-.41.46-.75.96-1.03 1.47a6.73 6.73 0 00-3.84 2.14c-.16.18-.32.38-.46.57-3.14-1.01-6.02.32-8.12 2.67-1.26 1.41-4.01 1.25-4.01 3.11-.43.69-.61 1.34-.72 2.14-.68.17.73 3.39.26 3.9-1.22 1.37-4.33 1.03-3.11 2.93-.96.35-.69 1.62-1.4 2.42-2.48 2.77 1.67 6.43 4.67 9.13l22.39 1.31 13.25 9.75 5.25 7.25" fill="#ED5543"/>
    <path d="M113.411 133c-2 1.5.75 10.25 10.75 6.5s15.75-11.75 16.75-21c0 0-4 10.25-14.25 12.5s-13.25 2-13.25 2z" fill="#ED5544"/>
    <path d="M94.76 162.84l-6.98-21.42-4.72 2.28 5.97 17.44 5.73 1.7zm5.889 18.07l-5.37-1.49 3.14 9.17 4.33-1.23-2.1-6.45z" fill="#ED5543"/>
    <path d="M45.12 153.311s10.79 21.16 25.61 9.47c0 0 4.25-6.89 17.15-3.05 12.889 3.84 17.599 9.79 17.599 9.79.92 1 .76 2.93-.16 4.38" stroke="#3D4749" stroke-width="2" stroke-linecap="round" stroke-linejoin="round"/>
    <path d="M86.3 174.81l17.311 7.44s2.03.31 3.33-2.08c1.3-2.39-.89-3.39-.89-3.39-4.73-4.84-19.52-9.88-19.52-9.88m1.849 9.25s2.95 1.31 3.61 4.1c.66 2.79-1.26 4.77-1.26 4.77m-7.49-2.67c.53.41 11.11 3.58 10.17 6.96-.94 3.38-3.65 6.66-9.45 4.82" stroke="#3D4749" stroke-width="2" stroke-linecap="round" stroke-linejoin="round"/>
    <path d="M105.1 182.12l1.87 5.34-2.11 9.35-7.09-7.72s-1.74-4.67-4.03-11.01m-6.44-18.399c-2.77-8.28-4.84-15.26-4.25-15.98 1.54-1.85 3.52-2.84 7.7-2.56l7.35 20.99M86.37 79.77c-2.32-1.7-5.39-1.98-8.26 1.03-4.57 4.79-2.62 16.44 3.67 17.33m66.001-3.29c2.85-.44 5.69.74 6.84 4.73 1.83 6.361-7.07 15.351-13.06 13.221m.63 1.349c-5.39 17.41-20.02 20.78-36.62 16.7-16.6-4.08-27-13.76-23.71-31.51M84.91 76.5c.25-17.25 10.25-43.32 43.25-35 30.75 7.75 33.75 36 23.04 52.15m-40.46-20.66c-3.52-1.29-7.84.09-9.97 3.18m28.75.95c3.75.12 7.24 3.01 8.05 6.68" stroke="#3D4749" stroke-width="2" stroke-linecap="round" stroke-linejoin="round"/>
    <path d="M120.501 92.35c1.24 3.74-.33 17.25-5.42 18.31-3.86.8-8.01-.38-9.37-4.08m16.669 7.621c-.96 3.93-6.59 5.93-12.57 4.46-5.98-1.47-10.04-5.84-9.08-9.77" stroke="#3D4749" stroke-width="2" stroke-linecap="round" stroke-linejoin="round"/>
    <path d="M112.98 90.97c.28-1.12 2.27-2.46 4.67-1.87 2.4.59 4.23 2.15 3.85 3.72" stroke="#3D4749" stroke-width="2" stroke-linecap="round" stroke-linejoin="round"/>
    <path d="M90.94 80.78l13.099 20.219" stroke="#ED5544" stroke-width="4" stroke-linecap="round" stroke-linejoin="round"/>
    <path d="M88.75 86.63l9.73 15.391" stroke="#ED5544" stroke-width="2.11" stroke-linecap="round" stroke-linejoin="round"/>
    <path d="M132.16 85.44l13.17 18.169-3.11 3.74-14.3-20.37 4.24-1.54z" fill="#ED5543"/>
    <path d="M125.471 88.05l13.1 22.141" stroke="#ED5544" stroke-width="2.11" stroke-linecap="round" stroke-linejoin="round"/>
    <path d="M100.2 103.03c7.146 0 12.94-5.793 12.94-12.94 0-7.146-5.794-12.94-12.94-12.94-7.147 0-12.94 5.794-12.94 12.94 0 7.147 5.793 12.94 12.94 12.94z" stroke="#3D4749" stroke-width="2" stroke-linecap="round" stroke-linejoin="round"/>
    <path d="M108.14 89.59a3.754 3.754 0 01-4.54 2.75 3.746 3.746 0 01-2.75-4.54m33.21 8.15a3.754 3.754 0 01-4.54 2.75 3.746 3.746 0 01-2.75-4.54" stroke="#3D4749" stroke-width="2" stroke-linecap="round" stroke-linejoin="round"/>
    <path d="M121.321 93.43c2.35-5.91 8.75-9.33 15.1-7.78 6.94 1.7 11.18 8.71 9.48 15.65-1.7 6.94-8.71 11.18-15.65 9.48-4.9-1.2-8.46-5.05-9.53-9.66m24.099 15.379c16.17-.67 24.33 7.33 56 35M112.99 132s-10.5 6.33-10.33 13.5c.17 7.17 3.38 5.5 3.38 5.5m44.911-18.25c.12 2.25-4.75 14.12-16.75 15.25-12 1.12-16.25 8.25-16.25 8.25s-4.88 2.12-4.5-2.13c.38-4.25 3.75-9.25 8.13-11.25" stroke="#3D4749" stroke-width="2" stroke-linecap="round" stroke-linejoin="round"/>
    <path d="M113.07 153.001s-1.88 2.62-5.25 1.5-.5-14.25 8.63-18.87m33.21 3.209s16.48 47.19 62.17 40.17m-59.59-69.511c14-2.38 31.02 3.93 44.18 13.76 0 0-12.85 2.91-14.85 11.58m-102-30.999c-12.29-2.92-31.71-5.74-46.49 4.11-2.34 1.56 16.16 8.06 23.16 34.06" stroke="#3D4749" stroke-width="2" stroke-linecap="round" stroke-linejoin="round"/>
    <path d="M34.74 111c-25 8.5-49 43.5-21.5 57.5s40.38 21.05 40.38 21.05c12.45 10.03 25.13 6.88 31.2 1.13M39.72 62.21H28.09c-4.89 0-8.85-3.96-8.85-8.85V34.03c0-4.89 3.96-8.85 8.85-8.85h31.3c4.89 0 8.85 3.96 8.85 8.85v19.33c0 4.89-3.96 8.85-8.85 8.85h-9.85" stroke="#3D4749" stroke-width="2" stroke-linecap="round" stroke-linejoin="round"/>
    <path d="M42.8 53.77l-.31-.31c-2.89-2.89-5.18-5.18-7.84-8.04-1.84-1.99-2.24-5.06-.94-7.31 1.15-1.91 3.35-3.11 5.51-2.97 1.63.1 3 .96 3.91 2.43.91-1.47 2.27-2.33 3.91-2.43 2.15-.14 4.36 1.06 5.51 2.98 1.3 2.25.9 5.32-.94 7.31-2.86 3.08-5.37 5.61-8.12 8.36a.5.5 0 01-.35.14.5.5 0 01-.35-.14l.01-.02z" stroke="#ED5544" stroke-width="2" stroke-linecap="round" stroke-linejoin="round"/>
    <path d="M39.92 62.64l14.82 12.49-5-12.63" stroke="#3D4749" stroke-width="2" stroke-linecap="round" stroke-linejoin="round"/>
    <path d="M157.15 64.69c2.9.1 5.68-.92 7.61-3.08 1.33-1.48 2.07-3.3 2.27-5.23 1.24-.44 2.38-1.16 3.29-2.18 2.33-2.61 2.62-6.4 1.07-9.66.04-.04.09-.08.12-.12 1.77-1.98 1.98-4.9.86-7.64.1-.1.21-.19.3-.3 3.93-4.39 3.06-11.61-1.95-16.09-.87-.78-1.82-1.42-2.8-1.94.98-2.65.23-5.85-2.13-7.97a7.67 7.67 0 00-3.84-1.86c-.57-1.82-1.6-3.51-3.12-4.87-3.82-3.43-9.42-3.64-13.51-.86-3.28-2.81-8.4-2.31-11.51 1.16-.48.53-.87 1.11-1.2 1.7a7.718 7.718 0 00-4.44 2.48 8.5 8.5 0 00-.53.66c-3.64-1.17-7.53-.42-9.96 2.29-1.46 1.63-2.15 3.7-2.14 5.86-.5.79-.82 1.68-.96 2.6-.79.2-1.48.58-2.02 1.18-1.42 1.58-1.28 4.13.13 6.32-1.12.4-2.14 1.06-2.97 1.99-2.87 3.21-2.38 8.35 1.1 11.46" stroke="#3D4749" stroke-width="1.94" stroke-linecap="round" stroke-linejoin="round"/>
  </g>
  <defs>
    <clipPath id="02paXEa07a">
      <path fill="#fff" d="M0 0h212.82v197.8H0z"/>
    </clipPath>
  </defs>
</svg>
