<svg xmlns="http://www.w3.org/2000/svg" fill="none" viewBox="0 0 837 407">
  <path d="M493.315 259.86a.45.45 0 01-.334-.143c-.915-.905-3.509-3.372-4.557-3.858-.878-.41-3.929-.696-5.025-.772a.471.471 0 01-.42-.324.495.495 0 01.143-.514c.877-.743 3.242-2.867 3.69-3.763.496-1.009.83-4.524.915-5.791a.48.48 0 01.325-.419.479.479 0 01.515.133c.829.924 3.213 3.429 4.214 3.906.925.438 4.176.657 5.349.704a.46.46 0 01.429.315c.067.181.01.39-.133.514-.887.762-3.29 2.953-3.747 3.877-.487.991-.792 4.43-.868 5.668a.48.48 0 01-.305.419.545.545 0 01-.172.029l-.019.019zm-8.734-5.63c1.325.124 3.404.371 4.233.762 1.021.476 3.014 2.305 4.091 3.334.124-1.467.401-4.02.887-5.01.438-.886 2.069-2.458 3.108-3.411-1.411-.095-3.661-.314-4.558-.733-.982-.467-2.755-2.248-3.766-3.325-.133 1.496-.439 4.058-.925 5.059-.429.866-2.04 2.4-3.07 3.314v.01zm11.032-9.003a.45.45 0 01-.267-.086.476.476 0 01-.124-.666l2.346-3.42a.486.486 0 01.667-.124c.22.152.277.448.124.667l-2.345 3.419a.481.481 0 01-.391.21h-.01zm-10.906 17.926a.448.448 0 01-.267-.086.478.478 0 01-.124-.667l2.336-3.419a.487.487 0 01.668-.124.477.477 0 01.124.667l-2.336 3.419a.481.481 0 01-.391.21h-.01zm17.077-4.973a.442.442 0 01-.219-.057l-3.662-1.943a.484.484 0 01-.2-.648.475.475 0 01.648-.2l3.662 1.943c.229.124.324.41.2.648a.475.475 0 01-.419.257h-.01zm-19.051-8.828a.445.445 0 01-.219-.057l-3.661-1.943a.483.483 0 01-.201-.648.484.484 0 01.649-.2l3.661 1.943c.229.124.324.41.2.648a.473.473 0 01-.419.257h-.01zm-52.025-144.496a.477.477 0 01-.429-.267c-.563-1.153-2.203-4.334-3.033-5.144-.696-.676-3.48-1.943-4.491-2.381a.466.466 0 01-.286-.448c0-.19.124-.362.305-.438 1.068-.41 4.005-1.638 4.72-2.334.801-.79 2.279-3.991 2.775-5.163.076-.18.248-.257.439-.285.19 0 .362.114.438.295.487 1.152 1.907 4.296 2.689 5.067.734.724 3.719 2 4.815 2.43a.484.484 0 01.306.438c0 .19-.115.371-.306.438-1.087.428-4.081 1.705-4.815 2.429-.782.771-2.202 3.924-2.689 5.067a.493.493 0 01-.429.296h-.009zm-6.541-8.211c1.211.552 3.089 1.467 3.747 2.114.81.79 2.088 3.163 2.765 4.496.601-1.343 1.707-3.667 2.489-4.439.705-.695 2.765-1.638 4.062-2.19-1.297-.553-3.357-1.496-4.062-2.191-.773-.762-1.86-3.03-2.46-4.382-.62 1.372-1.755 3.696-2.546 4.468-.696.676-2.718 1.59-3.995 2.124zm-39.951 128.836a.5.5 0 01-.257-.076.47.47 0 01-.21-.486c.21-1.124.686-4.267.467-5.239-.257-1.095-2.222-4.029-2.956-5.058a.477.477 0 01-.019-.524.478.478 0 01.477-.219c1.23.191 4.663.619 5.731.352 1.001-.247 3.652-2.133 4.586-2.838a.495.495 0 01.534-.029.46.46 0 01.219.486c-.2 1.153-.667 4.372-.438 5.372.248 1.067 2.193 3.925 2.927 4.935a.477.477 0 01-.429.752c-1.278-.124-4.854-.39-5.979-.105-.944.239-3.48 1.953-4.376 2.591a.494.494 0 01-.277.086zm-1.564-10.516c.839 1.248 2.241 3.42 2.489 4.506.219.943-.057 3.143-.267 4.515 1.097-.743 2.87-1.867 3.766-2.096 1.097-.276 3.795-.124 5.283 0-.83-1.21-2.241-3.363-2.489-4.439-.229-.962.038-3.21.248-4.601-1.154.819-3.032 2.077-3.995 2.315-1.058.257-3.557 0-5.025-.191l-.01-.009zm6.738-65.215a.475.475 0 01-.066-.943l2.345-.371a.482.482 0 01.544.4.475.475 0 01-.401.543l-2.345.371h-.077zm-12.046 2.983a.473.473 0 01-.067-.943l2.346-.372a.475.475 0 01.543.4.474.474 0 01-.4.543l-2.346.372h-.076zm10.017 5.191c-.21 0-.4-.143-.458-.353l-.629-2.295a.467.467 0 01.334-.581.47.47 0 01.582.333l.629 2.296a.468.468 0 01-.334.581.591.591 0 01-.124.019zm-5.027-11.439a.478.478 0 01-.458-.353l-.629-2.295a.467.467 0 01.334-.581.468.468 0 01.581.333l.629 2.296a.468.468 0 01-.333.581.591.591 0 01-.124.019zm11.511 135.321a.435.435 0 01-.191-.038.479.479 0 01-.286-.429c-.01-1.286-.124-4.858-.524-5.953-.334-.915-2.308-3.249-3.033-4.077a.479.479 0 01.401-.791c1.144.086 4.319.238 5.263-.086 1.068-.371 3.776-2.629 4.73-3.467a.5.5 0 01.524-.076.47.47 0 01.267.447c-.057 1.239-.124 4.697.248 5.735.353.962 2.508 3.4 3.299 4.258a.495.495 0 01.086.533.484.484 0 01-.467.267c-1.173-.076-4.425-.21-5.388.133-1.039.362-3.68 2.601-4.605 3.429a.48.48 0 01-.315.124l-.009-.009zm-2.584-10.269c.858 1.019 2.155 2.648 2.479 3.515.391 1.057.524 3.753.562 5.249 1.116-.953 3.118-2.582 4.148-2.944.935-.324 3.194-.295 4.606-.238-.935-1.057-2.384-2.791-2.727-3.724-.372-1.02-.372-3.534-.344-5.011-1.153.972-3.165 2.582-4.224 2.944-.915.314-3.137.276-4.519.209h.019zm14.515 1.466a.487.487 0 01-.467-.39.483.483 0 01.381-.562l4.072-.791a.485.485 0 01.563.381.483.483 0 01-.382.562l-4.071.791h-.096v.009zm-20.367 5.094a.487.487 0 01-.467-.39.481.481 0 01.381-.562l4.072-.791a.482.482 0 01.562.381.482.482 0 01-.381.562l-4.072.791h-.095v.009zm15.634 8.453a.49.49 0 01-.458-.333l-1.239-3.953a.483.483 0 01.314-.601.484.484 0 01.601.315l1.24 3.953a.483.483 0 01-.315.6c-.048.019-.096.019-.143.019zm-7.332-19.65a.491.491 0 01-.458-.334l-1.239-3.953a.482.482 0 01.314-.6.483.483 0 01.601.314l1.239 3.953a.483.483 0 01-.314.601c-.048.019-.096.019-.143.019zm49.42 15.888s-.086 0-.133-.019l-2.279-.676a.48.48 0 01-.324-.591.486.486 0 01.591-.324l2.279.677c.248.076.4.343.324.59a.469.469 0 01-.458.343zm-12.152-2.481s-.086 0-.134-.019l-2.278-.676a.482.482 0 01-.325-.591.486.486 0 01.592-.323l2.278.676a.482.482 0 01.325.59.47.47 0 01-.458.343zm4.531 8.318h-.085a.475.475 0 01-.382-.552l.42-2.344a.48.48 0 01.553-.381.476.476 0 01.381.553l-.419 2.343a.472.472 0 01-.468.391v-.01zm.391-12.487h-.086a.475.475 0 01-.381-.553l.419-2.343a.476.476 0 01.935.171l-.42 2.344a.47.47 0 01-.467.39v-.009zm-111.34-34.149c-4.997 0-9.374-1.657-13.512-6.105-2.488-2.677-3.68-6.764-3.356-11.498.324-4.801 2.155-9.211 4.643-11.25a.955.955 0 011.211 1.477c-2.04 1.667-3.661 5.744-3.947 9.907-.162 2.438-.019 6.982 2.851 10.078 5.464 5.877 11.289 6.868 22.255 3.772a.95.95 0 11.515 1.829c-3.891 1.095-7.409 1.8-10.66 1.8v-.01z" fill="#EE9295"/>
  <path d="M170.783 406.799a.945.945 0 01-.82-.476.95.95 0 01.344-1.305c15.704-9.145 30.398-20.537 43.661-33.854 26.174-26.281 45.13-51.505 61.854-73.766 20.119-26.777 36.005-47.914 54.923-57.077 14.464-7.002 27.871-2.382 35.88.381 2.737.943 6.141 2.114 6.608 1.448.944-1.372 2.432-4.687 1.287-7.44-.915-2.191-3.327-3.658-7.17-4.344-13.101-2.352-15.228-8.906-15.323-12.611-.105-3.744 3.938-9.526 36.367-21.071.038-.019.086-.029.124-.038 2.632-.553 9.335-2.772 8.791-6.306-.152-.991-.696-1.772-1.659-2.391-2.774-1.781-8.543-1.686-12.529-.572-4.787 1.344-19.413 7.307-21.721 8.25-.2.152-.41.295-.629.447a.931.931 0 01-.582.162l-.877.467c-2.689 1.429-9.202 4.887-11.442 6.182-3.233 1.858-8.057 2.362-11.032-.276-1.145-1.01-1.736-2.201-1.774-3.515-.057-2.077 1.306-4.449 4.148-7.249 4.376-4.306 8.191-6.687 12.033-8.935 4.329-2.543 10.136-3.353 12.844 0 1.344 1.667 1.917 3.896 1.583 6.125a9.078 9.078 0 01-1.202 3.296c5.388-2.172 14.446-5.744 18.136-6.782 3.585-1.01 10.289-1.629 14.074.8 1.43.914 2.269 2.162 2.508 3.696.906 5.858-9.211 8.22-10.222 8.439-23.37 8.326-35.165 14.784-35.041 19.204.104 3.82 2.574 8.782 13.759 10.792 4.519.81 7.418 2.658 8.591 5.487 1.459 3.505-.239 7.468-1.478 9.259-1.287 1.857-4.11.886-8.801-.734-7.733-2.667-20.672-7.125-34.422-.466-18.498 8.963-34.269 29.939-54.236 56.505-16.762 22.309-35.766 47.59-62.026 73.967-13.377 13.431-28.195 24.928-44.052 34.158a.97.97 0 01-.477.134v.009zm187.966-224.184c-2.078 0-4.51.752-6.531 1.933-3.738 2.191-7.447 4.506-11.662 8.659-2.412 2.372-3.613 4.334-3.575 5.839.019.781.391 1.486 1.134 2.144 2.279 2.019 6.246 1.533 8.82.057 2.27-1.305 8.792-4.782 11.5-6.211l1.869-.991.152-.057c2.384-1.848 3.147-3.829 3.356-5.22.258-1.705-.171-3.391-1.182-4.639-.849-1.048-2.25-1.495-3.862-1.495l-.019-.019z" fill="#EE9295"/>
  <path d="M332.147 197.188a7.635 7.635 0 01-4.634-1.543c-1.077-.8-1.707-2.019-1.812-3.524-.248-3.401 2.108-7.783 6.646-12.336 5.407-5.42 12.749-9.182 17.926-9.182h.153c2.203.028 3.948.714 5.178 2.028 1.02 1.086 1.506 2.382 1.43 3.839-.181 3.963-4.491 7.811-4.672 7.973a.944.944 0 01-1.345-.086.941.941 0 01.086-1.343c.038-.038 3.89-3.486 4.033-6.639.038-.943-.257-1.743-.925-2.448-.867-.924-2.145-1.4-3.814-1.429-4.748-.038-11.575 3.477-16.696 8.621-5.797 5.82-6.198 9.525-6.093 10.849.067.953.42 1.667 1.049 2.134 2.556 1.905 6.084 1.419 9.669-1.333a.946.946 0 011.335.171.953.953 0 01-.172 1.334c-2.498 1.914-5.015 2.886-7.332 2.895l-.01.019z" fill="#EE9295"/>
  <path d="M55.42 388.45c-32.601 0-53.864-7.144-54.18-7.258a.954.954 0 01-.59-1.21.955.955 0 011.21-.591c.477.162 48.544 16.298 111.19-.419 48.61-12.974 65.068-36.254 94.941-78.529 9.001-12.745 19.214-27.186 31.867-43.551 28.281-36.588 53.911-57.144 70.436-67.946 17.964-11.745 29.063-14.764 29.53-14.888a.95.95 0 11.486 1.838c-.114.029-11.347 3.096-29.082 14.717-16.372 10.726-41.783 31.13-69.864 67.451-12.634 16.336-22.827 30.758-31.819 43.484-30.131 42.637-46.722 66.127-96.009 79.272a225.352 225.352 0 01-58.126 7.64l.01-.01zm399.865-173.526c-2.737 0-5.206-.867-6.503-2.943-1.125-1.801-1.421-4.068-.811-6.22.525-1.848 1.955-4.458 5.788-6.373a.95.95 0 011.278.429.946.946 0 01-.429 1.276c-3.213 1.6-4.386 3.705-4.806 5.182-.467 1.638-.248 3.343.591 4.687 1.631 2.619 6.589 2.486 10.441.857 4.005-1.696 8-3.515 12.73-7.097a.949.949 0 011.335.191.946.946 0 01-.191 1.333c-4.911 3.706-9.02 5.582-13.139 7.326-1.993.847-4.225 1.343-6.294 1.343l.01.009z" fill="#EE9295"/>
  <path d="M427.116 207.333c-3.594 0-7.904-.685-10.431-2.8-1.287-1.076-1.965-2.4-2.003-3.944-.163-5.896 10.231-6.972 11.261-7.068 30.359-6.62 37.091-11.592 37.396-14.593.363-3.61 1.336-13.212 25.384-21.242 19.594-6.544 37.977-25.3 61.262-49.028 19.547-19.927 41.707-42.522 71.257-65.288 2.498-1.924 6.378-4.687 10.859-7.878 14.675-10.44 36.863-26.214 40.639-34.102a.947.947 0 011.268-.447c.477.228.678.8.449 1.267-3.985 8.335-25.525 23.652-41.249 34.835-4.472 3.181-8.333 5.925-10.803 7.83-29.444 22.69-51.548 45.227-71.057 65.117-23.465 23.918-41.992 42.817-62.025 49.504-22.885 7.649-23.761 16.355-24.095 19.632-.372 3.715-5.139 8.916-38.951 16.279-.038 0-.087.02-.125.02-2.698.219-9.667 1.571-9.572 5.124.029.981.458 1.81 1.325 2.534 2.537 2.124 8.325 2.753 12.453 2.143 5.349-.79 22.865-5.486 23.037-5.534l1.897-.714c2.86-1.077 9.784-3.677 12.196-4.678a11.96 11.96 0 011.192-.419.955.955 0 011.182.648.958.958 0 01-.648 1.181c-.343.096-.668.21-.982.343-2.432 1.01-9.384 3.629-12.254 4.706l-1.982.743c-.811.219-17.889 4.791-23.343 5.601-1.001.152-2.211.238-3.527.238l-.01-.01zm35.432 18.614c-.601 0-1.183-.039-1.726-.115-2.174-.305-3.814-1.19-4.882-2.638-.877-1.201-1.202-2.534-.944-3.963.677-3.896 5.473-7.173 5.683-7.306a.953.953 0 111.068 1.581c-.038.029-4.329 2.963-4.873 6.058-.162.915.039 1.734.611 2.506.743 1.009 1.954 1.648 3.604 1.876 4.691.677 12.005-1.981 17.783-6.43 6.522-5.02 7.39-8.639 7.456-9.954.048-.943-.209-1.686-.772-2.229a.94.94 0 01-.029-1.343.942.942 0 011.345-.028c.972.924 1.44 2.2 1.363 3.705-.181 3.391-3.089 7.43-8.19 11.364-5.502 4.239-12.396 6.925-17.488 6.925l-.009-.009z" fill="#EE9295"/>
  <path d="M471.725 223.755a.962.962 0 01-.944-.828.949.949 0 01.82-1.067c.458-.057 46.713-6.887 109.12-68.803 14.665-14.555 26.67-27.52 37.254-38.96 35.461-38.33 54.999-59.45 105.811-66.308 65.221-8.801 111.599 13.336 112.057 13.555a.954.954 0 11-.839 1.715c-.458-.22-46.35-22.109-110.97-13.383-50.135 6.772-69.511 27.71-104.667 65.716-10.593 11.46-22.608 24.443-37.301 39.017-32.858 32.597-61.025 49.695-78.875 58.306-19.404 9.364-30.865 10.964-31.342 11.031h-.124v.009zm9.39-11.867h-.086a.937.937 0 01-.687-.381c-.076-.095-7.389-10.021-12.185-17.536a.709.709 0 01-.086-.172l-3.242-8.573a.955.955 0 01.553-1.229.957.957 0 011.23.553l3.204 8.487c3.919 6.135 9.516 13.869 11.404 16.451 5.425-5.525 4.453-8.659 3.509-11.688a27.102 27.102 0 01-.267-.886c-.21-.724-.744-1.791-1.307-2.905-1.468-2.925-3.127-6.23-1.897-8.545.61-1.143 1.831-1.838 3.633-2.067 5.521-.695 10.851-7.563 14.264-18.375a.947.947 0 011.192-.619.946.946 0 01.62 1.191c-1.745 5.544-6.799 18.556-15.847 19.689-1.154.143-1.888.505-2.194 1.077-.772 1.448.782 4.534 1.917 6.791.629 1.258 1.173 2.344 1.43 3.239.077.276.162.562.258.848 1.039 3.372 2.345 7.573-4.796 14.393a.947.947 0 01-.658.267l.038-.01zm-275.024-35.104a7.94 7.94 0 01-3.986-1.086 7.863 7.863 0 01-3.652-4.82l-9.363-35.921 1.85-.476 9.363 35.921a5.965 5.965 0 002.775 3.658 5.983 5.983 0 004.548.628l13.797-3.6a6.007 6.007 0 004.291-7.316l-7.685-29.358 1.84-.486 7.686 29.358c1.106 4.21-1.431 8.535-5.645 9.64l-13.798 3.601a8.108 8.108 0 01-2.011.257h-.01zm10.358-47.209l-4.395-16.603a5.971 5.971 0 00-2.775-3.657 5.98 5.98 0 00-4.548-.629l-4.396 1.143-3.328-12.707-5.044 1.152 3.366 12.869-4.396 1.153a6.006 6.006 0 00-4.291 7.316l2.403 9.192-1.84.486-2.403-9.192c-1.106-4.211 1.43-8.535 5.645-9.64l2.546-.667-3.385-12.926 8.763-2 3.308 12.649 2.546-.667a7.87 7.87 0 015.998.829 7.863 7.863 0 013.652 4.82l4.395 16.594-1.84.485h.019z" fill="#EE9295"/>
  <path d="M191.129 98.33c-1.65 0-3.07-3.638-3.08-3.677l-.143-.552a2.094 2.094 0 011.488-2.543l6.522-1.706a2.053 2.053 0 011.582.22c.477.276.82.733.963 1.266l.143.553c.182.705 1.021 4.258-.667 4.696l-6.522 1.705a.984.984 0 01-.286.038zm5.301-6.639h-.028l-6.522 1.705a.176.176 0 00-.124.22l.143.552c.114.4.906 1.743 1.344 2.2l5.798-1.515c.028-.61-.134-1.905-.277-2.476l-.143-.553a.209.209 0 00-.181-.133h-.01z" fill="#EE9295"/>
  <path d="M188.829 92.62l-3.423-7.554 10.403-2.714 1.02 8.287-1.888.238-.753-6.134-6.112 1.6 2.489 5.486-1.736.791zm8.601 32.118c-.41 0-.811-.019-1.192-.067-2.327-.286-2.946-1.353-3.108-1.972-.144-.533-.144-1.61 1.382-2.762.267-.2.572-.391.896-.572l-.124-1.857.763-.2c3.357-.877 9.335-2.125 11.709-.658.687.42.925.972 1.002 1.353.553 2.639-3.414 5.125-7.609 6.22-1.288.334-2.575.515-3.729.515h.01zm2.994-4.849c-.467 0-1.068.067-1.812.257-2.469.648-3.604 1.772-3.623 2.086.019.058.343.401 1.487.543 1.173.143 2.699 0 4.205-.39.477-.124.935-.267 1.364-.41l-.496-1.886c-.067-.057-.448-.19-1.116-.19l-.009-.01zm1.135-1.781c1.315.295 1.716 1.048 1.83 1.495l.429 1.639c2.079-1.019 3.223-2.21 3.09-2.839 0 0-.029-.057-.143-.124-.639-.39-2.317-.571-5.206-.171z" fill="#EE9295"/>
  <path d="M195.144 122.208l-1.855.443 3.134 13.07 1.855-.442-3.134-13.071zm13.548 45.491c-1.326 0-2.756-.248-4.301-.829l-.476-.181-6.122-26.757 1.859-.429 5.893 25.748c3.156 1.047 6.122.571 8.839-1.448a14.164 14.164 0 003.166-3.315l-5.187-22.414 1.859-.428 5.368 23.175-.19.324c-.048.076-3.9 6.554-10.699 6.554h-.009zm.114-49.741l-1.849.466 3.016 11.923 1.849-.466-3.016-11.923z" fill="#EE9295"/>
  <path d="M228.884 137.341c-3.891 0-5.893-2.125-7.657-4.001-1.717-1.829-3.194-3.401-6.265-3.401-3.07 0-4.548 1.572-6.264 3.401-1.764 1.876-3.757 4.001-7.648 4.001-3.89 0-5.892-2.125-7.647-4.001-1.716-1.829-3.194-3.401-6.264-3.401-3.071 0-4.548 1.572-6.255 3.401-1.764 1.876-3.757 4.001-7.647 4.001-3.891 0-5.836-2.125-7.6-4.001-1.716-1.829-3.347-3.401-6.207-3.401v-1.905c3.814 0 5.835 2.124 7.599 4.001 1.717 1.829 3.166 3.401 6.236 3.401s4.529-1.572 6.246-3.401c1.764-1.877 3.756-4.001 7.647-4.001 3.89 0 5.883 2.124 7.647 4.001 1.716 1.829 3.194 3.401 6.255 3.401s4.548-1.572 6.265-3.401c1.764-1.877 3.756-4.001 7.647-4.001 3.89 0 5.892 2.124 7.656 4.001 1.717 1.829 3.195 3.401 6.265 3.401s4.339-1.572 6.055-3.401c1.764-1.877 3.633-4.001 7.447-4.001v1.905c-2.861 0-4.339 1.572-6.055 3.401-1.764 1.876-3.557 4.001-7.447 4.001h-.009zm68.406 54.789a.473.473 0 01-.476-.457c-.048-1.22-.134-4.868-.258-11.469 0-.267.2-.476.467-.486.296 0 .477.2.487.467.124 6.601.209 10.24.257 11.45a.467.467 0 01-.458.495h-.019zm-.438-20.956c-.258 0-.467-.229-.477-.486v-.276c-.105-5.278-.191-9.831-.219-11.241-.038-1.571-.077-3.114-.105-4.696 0-.266.2-.447.467-.447.258 0 .477.171.477.428.028 1.572.067 3.125.105 4.696.038 1.41.124 5.944.219 11.231v.286c.01.266-.2.505-.467.505zm-49.23-15.06c-2.565 0-5.197-.029-7.819-.096a.477.477 0 01-.467-.485c0-.258.229-.458.486-.467 13.368.314 26.193-.181 38.246-1.467a.473.473 0 01.524.419.479.479 0 01-.42.524c-9.725 1.038-20.004 1.572-30.55 1.572zm32.4-1.772a.482.482 0 01-.476-.419.478.478 0 01.419-.524 241.489 241.489 0 0016-2.382h.029c-.019-1.933-.039-3.867-.039-5.801 0-15.126.792-28.31 2.413-40.283.524-3.849 1.144-7.65 1.84-11.307a.476.476 0 01.553-.381c.258.047.563.295.515.552-.696 3.64-1.697 7.421-1.697 11.26-1.907 11.935-2.537 25.061-2.537 40.15 0 2.429-.047 4.867-.009 7.306 0 .267-.238.476-.505.486-.248-.019-.496-.21-.506-.467 0-.19-.009-.371-.019-.562a240.498 240.498 0 01-15.933 2.362h-.057l.009.01zm25.364-4.315a.487.487 0 01-.467-.372c-.058-.257.104-.409.362-.466 3.738-.867 7.447-1.829 11.042-2.782 13.578-3.81 26.202-9.421 37.52-16.003 1.907-1.114 3.824-2.343 5.683-3.543.219-.143.515-.105.658.114a.458.458 0 01-.143.648 135.678 135.678 0 01-5.721 3.515c-11.385 6.629-24.076 12.011-37.731 15.993a197.362 197.362 0 01-11.098 2.896c-.039 0-.077.009-.105.009v-.009zm55.99-23.395a.498.498 0 01-.401-.21.475.475 0 01.134-.657 138.592 138.592 0 0012.853-9.764.48.48 0 01.63.724c-4.1 3.515-8.458 6.83-12.94 9.831a.455.455 0 01-.267.076h-.009zm19.909-16.251a.48.48 0 01-.343-.143.489.489 0 010-.676 130.197 130.197 0 007.752-8.344 124.6 124.6 0 008.296-10.869 112.745 112.745 0 005.158-8.306c.401-.839.887-1.83 1.44-2.934 2.403-4.849 5.683-11.488 8.191-19.042a.484.484 0 01.6-.305.484.484 0 01.305.6c-2.526 7.621-5.835 14.289-8.247 19.166a340.897 340.897 0 00-1.45 2.953 118.248 118.248 0 01-5.215 8.401 128.41 128.41 0 01-8.363 10.945 132 132 0 01-7.809 8.402.454.454 0 01-.334.133l.019.019zm-78.579-25.48s-.076 0-.114-.01a.482.482 0 01-.353-.572 160.558 160.558 0 014.644-15.555.47.47 0 01.61-.286.47.47 0 01.286.61 158.792 158.792 0 00-4.615 15.47.478.478 0 01-.467.361l.009-.019zm5.283-17.299c-.057 0-.115 0-.162-.029a.48.48 0 01-.286-.61 150.795 150.795 0 012.679-6.743 144.361 144.361 0 013.623-7.85c4.949-9.306 11.738-17.965 19.624-25.042a87.201 87.201 0 019.029-7.106.465.465 0 01.658.123.463.463 0 01-.124.658 87.972 87.972 0 00-8.934 7.03c-7.809 7.01-14.512 15.574-19.414 24.776a145.424 145.424 0 00-3.594 7.782 161.576 161.576 0 00-2.661 6.697.481.481 0 01-.448.314h.01zm104.838-8.706s-.095 0-.143-.02a.476.476 0 01-.314-.59c1.745-5.677 2.717-10.983 2.87-15.765 0-.267.2-.476.496-.457.267 0 .467.228.457.495-.152 4.868-1.134 10.26-2.908 16.013a.481.481 0 01-.458.333v-.01zm2.051-25.348a.488.488 0 01-.468-.372c-.848-3.743-2.364-7.182-4.5-10.22-4.863-6.907-13.149-12.003-24.62-15.156-.772-.21-1.611-.314-2.574-.314-1.307 0-2.67.2-3.986.39-.696.105-1.383.2-2.069.277a66.578 66.578 0 00-8.753 1.533.475.475 0 01-.573-.352.467.467 0 01.353-.572 65.4 65.4 0 018.877-1.552 78.953 78.953 0 002.031-.267c1.345-.19 2.747-.4 4.12-.4 1.039 0 1.964.114 2.822.352 11.69 3.21 20.157 8.43 25.144 15.518 2.203 3.134 3.776 6.687 4.653 10.554a.48.48 0 01-.362.572c-.038 0-.067.009-.105.009h.01zm-63.953-17.394a.476.476 0 01-.419-.257.477.477 0 01.2-.648c4.911-2.581 9.993-4.61 15.123-6.01a.472.472 0 01.581.333.468.468 0 01-.333.581c-5.063 1.39-10.088 3.382-14.932 5.935a.445.445 0 01-.22.057v.01zm127.136 120.823a.45.45 0 01-.334-.143c-.915-.905-3.509-3.372-4.557-3.858-.878-.409-3.929-.695-5.025-.771a.472.472 0 01-.42-.324.497.497 0 01.143-.515c.877-.743 3.242-2.867 3.69-3.762.496-1.01.83-4.525.916-5.792a.482.482 0 01.324-.419.498.498 0 01.515.134c.829.924 3.213 3.429 4.214 3.905.925.438 4.177.657 5.349.705a.46.46 0 01.429.314.474.474 0 01-.133.515c-.887.762-3.29 2.953-3.747 3.877-.487.99-.792 4.429-.868 5.667a.478.478 0 01-.305.419.545.545 0 01-.172.029l-.019.019zm-8.734-5.63c1.325.124 3.404.372 4.234.762 1.02.477 3.013 2.306 4.09 3.334.124-1.466.401-4.019.887-5.01.439-.895 2.069-2.458 3.108-3.41-1.411-.095-3.661-.315-4.557-.734-.983-.466-2.756-2.248-3.767-3.324-.133 1.495-.438 4.067-.925 5.058-.429.867-2.04 2.4-3.07 3.315v.009zm11.032-9.001a.443.443 0 01-.267-.086.467.467 0 01-.124-.657l2.346-3.419a.477.477 0 01.668-.124.467.467 0 01.124.657l-2.346 3.42a.481.481 0 01-.391.209h-.01zm-10.906 17.927a.447.447 0 01-.267-.085.469.469 0 01-.124-.658l2.336-3.419a.479.479 0 01.668-.124.467.467 0 01.124.657l-2.336 3.42a.483.483 0 01-.391.209h-.01zm17.073-4.972a.445.445 0 01-.219-.057l-3.661-1.943a.483.483 0 01-.201-.648.495.495 0 01.649-.2l3.661 1.943c.229.124.324.41.2.648a.473.473 0 01-.419.257h-.01zm-19.054-8.828a.446.446 0 01-.22-.057l-3.661-1.944a.481.481 0 01-.2-.647.494.494 0 01.648-.2l3.661 1.943a.483.483 0 01.201.648.476.476 0 01-.42.257h-.009zm55.758 257.932h-20.262c-7.723 0-14.007-6.077-14.007-13.536v-16.098c0-.524.429-.953.953-.953.525 0 .954.429.954.953v16.098c0 6.42 5.425 11.631 12.1 11.631h20.262c6.675 0 12.1-5.22 12.1-11.631v-16.098c0-.524.429-.953.954-.953.524 0 .953.429.953.953v16.098c0 7.468-6.283 13.536-14.007 13.536z" fill="#EE9295"/>
  <path d="M513.764 374.486c-1.744 0-3.384-.228-4.624-.638-2.165-.724-2.613-1.848-2.613-2.667 0-.524.429-.952.954-.952.524 0 .953.428.953.952 0 .476 1.879 1.4 5.33 1.4 3.452 0 5.331-.924 5.331-1.4 0-.524.429-.952.953-.952.525 0 .954.428.954.952 0 2.439-3.738 3.305-7.238 3.305zm3.181-6.875h-7.399a.956.956 0 01-.953-.953v-8.259c0-1.476-.973-4.724-3.862-4.724h-7.914a.956.956 0 01-.954-.953c0-.524.429-.952.954-.952h7.914c3.938 0 5.769 3.953 5.769 6.629v7.306h6.445c.525 0 .954.429.954.953a.956.956 0 01-.954.953z" fill="#EE9295"/>
  <path d="M502.796 361.837a2.154 2.154 0 100-4.308 2.154 2.154 0 000 4.308zm20.726-.001c1.19 0 2.155-.964 2.155-2.152a2.154 2.154 0 00-4.31 0c0 1.188.965 2.152 2.155 2.152zm-4.507-6.123a.977.977 0 01-.744-.352.951.951 0 01.143-1.334c.172-.133 4.196-3.315 11.757-2.248a.948.948 0 01.811 1.076.95.95 0 01-1.078.81c-6.674-.962-10.25 1.81-10.288 1.838a.919.919 0 01-.591.21h-.01zm-5.254 40.265c-10.47 0-15.152-6.296-15.152-12.535 0-.524.429-.953.954-.953.524 0 .953.429.953.953 0 5.286 4.101 10.63 13.245 10.63 9.144 0 11.528-7.868 11.528-10.63 0-.524.429-.953.953-.953.525 0 .954.429.954.953 0 4.848-3.652 12.535-13.435 12.535z" fill="#EE9295"/>
  <path d="M489.63 376.537c-.2 0-.41-.067-.591-.2-.915-.715-1.039-2.02-1.154-3.182-.067-.667-.152-1.591-.41-1.838-.257-.248-1.173-.324-1.85-.372-1.153-.086-2.469-.19-3.203-1.086-.735-.905-.563-2.2-.41-3.353.085-.667.209-1.581.009-1.886-.191-.295-1.068-.571-1.716-.771-1.116-.343-2.375-.743-2.88-1.791-.505-1.039-.067-2.21.362-3.353.239-.638.563-1.505.439-1.848-.114-.334-.906-.8-1.487-1.134-1.002-.59-2.146-1.257-2.413-2.4-.257-1.124.439-2.163 1.106-3.172.372-.562.887-1.343.849-1.705-.038-.343-.706-.972-1.192-1.429-.849-.8-1.812-1.715-1.812-2.886 0-1.705.992-3.163 1.955-4.573.687-1.009 1.344-1.962 1.526-2.867.19-.952-.058-2.115-.315-3.343-.343-1.639-.696-3.334-.067-4.858.649-1.553 2.117-2.515 3.538-3.439 1.039-.676 2.021-1.315 2.546-2.096.534-.79.753-1.953.982-3.172.314-1.657.639-3.362 1.821-4.543 1.182-1.182 2.889-1.506 4.548-1.81 1.23-.229 2.384-.448 3.175-.981.782-.524 1.421-1.506 2.098-2.544.925-1.419 1.879-2.886 3.442-3.534 1.526-.628 3.223-.276 4.863.067 1.23.257 2.394.495 3.347.314.906-.181 1.859-.829 2.87-1.524 1.411-.962 2.861-1.953 4.567-1.953 1.707 0 3.166.991 4.577 1.953 1.011.686 1.965 1.343 2.87 1.524.954.191 2.117-.057 3.347-.314 1.64-.343 3.338-.695 4.863-.067 1.554.648 2.517 2.115 3.442 3.534.677 1.038 1.316 2.02 2.098 2.544.791.533 1.955.752 3.175.981 1.659.314 3.366.638 4.549 1.819 1.182 1.181 1.506 2.886 1.821 4.544.229 1.229.448 2.381.982 3.172.524.781 1.506 1.419 2.546 2.095 1.42.924 2.889 1.877 3.537 3.439.63 1.524.277 3.22-.067 4.858-.257 1.229-.505 2.391-.314 3.344.181.905.829 1.857 1.525 2.867.963 1.41 1.955 2.858 1.955 4.563 0 1.209-.982 2.143-1.85 2.962-.476.457-1.144 1.076-1.182 1.419-.057.4.42 1.172.801 1.801.629 1.038 1.287 2.124.973 3.238-.325 1.153-1.517 1.772-2.575 2.315-.629.324-1.411.734-1.564 1.067-.152.352.077 1.21.267 1.905.305 1.134.649 2.42.029 3.42s-1.917 1.267-3.061 1.505c-.706.152-1.583.333-1.821.629-.229.285-.219 1.219-.21 1.895.019 1.172.038 2.496-.791 3.325-.82.809-2.069.8-3.28.781-.735-.01-1.64-.019-1.936.228-.277.229-.439 1.153-.563 1.82-.2 1.143-.429 2.438-1.382 3.105a.943.943 0 01-1.326-.238.94.94 0 01.239-1.324c.305-.21.477-1.172.591-1.867.2-1.124.4-2.277 1.22-2.963.84-.686 2.022-.676 3.176-.666.705 0 1.668.019 1.907-.229.257-.257.248-1.238.238-1.943-.019-1.124-.038-2.296.629-3.115.668-.829 1.812-1.067 2.918-1.296.696-.143 1.64-.343 1.831-.647.191-.305-.067-1.239-.248-1.925-.296-1.085-.591-2.21-.172-3.172.42-.952 1.44-1.476 2.432-1.99.639-.334 1.516-.782 1.611-1.144.086-.323-.429-1.171-.772-1.733-.591-.972-1.202-1.972-1.059-3.039.134-1.019.964-1.8 1.764-2.553.534-.495 1.259-1.181 1.259-1.571 0-1.115-.791-2.267-1.621-3.496-.772-1.124-1.564-2.286-1.821-3.572-.267-1.334.029-2.744.315-4.106.295-1.419.581-2.762.171-3.734-.419-1.01-1.583-1.772-2.813-2.572-1.153-.752-2.345-1.524-3.089-2.629-.753-1.114-1.011-2.524-1.268-3.877-.267-1.429-.525-2.791-1.287-3.553-.763-.762-2.117-1.019-3.557-1.286-1.364-.257-2.765-.524-3.881-1.267-1.106-.743-1.888-1.933-2.632-3.086-.8-1.229-1.554-2.391-2.574-2.81-.982-.41-2.327-.124-3.738.171-1.363.286-2.774.581-4.109.315-1.288-.257-2.451-1.048-3.576-1.82-1.221-.838-2.374-1.619-3.499-1.619-1.126 0-2.27.791-3.5 1.619-1.125.772-2.288 1.563-3.576 1.82-1.344.266-2.746-.029-4.109-.315-1.421-.295-2.765-.581-3.738-.171-1.011.419-1.764 1.581-2.574 2.81-.754 1.153-1.526 2.343-2.632 3.086-1.116.753-2.527 1.01-3.89 1.267-1.431.267-2.785.524-3.547 1.286-.763.762-1.021 2.115-1.288 3.553-.257 1.362-.524 2.763-1.268 3.877-.744 1.105-1.936 1.886-3.08 2.629-1.23.8-2.393 1.562-2.813 2.572-.41.981-.124 2.324.172 3.734.286 1.362.582 2.772.315 4.106-.258 1.286-1.049 2.448-1.822 3.572-.839 1.219-1.62 2.372-1.62 3.496 0 .352.705 1.019 1.21 1.505.811.771 1.65 1.562 1.774 2.6.114 1.057-.534 2.029-1.154 2.972-.362.543-.906 1.362-.839 1.686.076.343.944.848 1.516 1.181.963.572 1.964 1.153 2.317 2.144.353 1-.057 2.095-.448 3.153-.229.619-.582 1.543-.429 1.847.153.315 1.106.61 1.735.801 1.078.333 2.184.676 2.756 1.562.572.895.42 2.048.267 3.162-.086.658-.219 1.639 0 1.905.219.267 1.211.343 1.869.391 1.125.086 2.288.171 3.042.914.753.743.867 1.896.972 3.02.067.657.162 1.648.429 1.858.41.323.487.924.162 1.333a.956.956 0 01-.753.362l-.019.01z" fill="#EE9295"/>
  <path d="M538.031 355.714c-.114 0-.219-.019-.333-.057-.22-.076-5.292-2-7.619-6.277-1.173-2.163-1.23-3.868-.944-5.077-2.899.628-8.143 1.219-11.356-1.648-1.03.809-3.033 2.124-5.14 2.076a4.576 4.576 0 01-2.708-.943c-1.211 1.029-3.881 2.925-7.323 2.81-2.212-.085-4.3-1.009-6.226-2.753-.162 3.087-1.326 8.202-6.713 11.707a.95.95 0 11-1.039-1.59c6.97-4.544 5.788-12.374 5.778-12.46a.951.951 0 01.553-1.019.961.961 0 011.135.276c2.04 2.524 4.262 3.848 6.598 3.934h.258c3.566 0 6.264-2.753 6.283-2.781.181-.191.429-.238.696-.238.267 0 .515.047.696.238.591.638 1.268.924 2.06.943 2.193.038 4.472-2.153 4.5-2.172a.964.964 0 01.716-.276.912.912 0 01.677.333c3.432 4.039 11.966 1.229 12.052 1.2a.961.961 0 011.125.41.953.953 0 01-.162 1.181c-.057.057-1.592 1.667.181 4.934 1.974 3.639 6.56 5.382 6.608 5.401a.956.956 0 01.563 1.229.956.956 0 01-.897.619h-.019z" fill="#EE9295"/>
</svg>
